<mxfile host="Electron" modified="2024-06-26T11:46:07.025Z" agent="Mozilla/5.0 (Windows NT 10.0; Win64; x64) AppleWebKit/537.36 (KHTML, like Gecko) draw.io/24.6.1 Chrome/124.0.6367.207 Electron/30.0.6 Safari/537.36" etag="9dpXW0Pwfeu-G0F4vgWo" version="24.6.1" type="device" pages="4">
  <diagram name="ER-Diagram" id="4Id6zJ79tkOpsPMKx6MR">
    <mxGraphModel dx="1886" dy="892" grid="1" gridSize="10" guides="1" tooltips="1" connect="1" arrows="1" fold="1" page="1" pageScale="1" pageWidth="827" pageHeight="1169" background="none" math="0" shadow="0">
      <root>
        <mxCell id="0" />
        <mxCell id="1" parent="0" />
        <mxCell id="nY8UX26Kj-myHwL68--w-2" value="User" style="shape=table;startSize=30;container=1;collapsible=1;childLayout=tableLayout;fixedRows=1;rowLines=0;fontStyle=1;align=center;resizeLast=1;html=1;fillColor=#008a00;fontColor=#ffffff;strokeColor=#005700;" parent="1" vertex="1">
          <mxGeometry x="10" y="597.5" width="180" height="210" as="geometry" />
        </mxCell>
        <mxCell id="nY8UX26Kj-myHwL68--w-3" value="" style="shape=tableRow;horizontal=0;startSize=0;swimlaneHead=0;swimlaneBody=0;fillColor=none;collapsible=0;dropTarget=0;points=[[0,0.5],[1,0.5]];portConstraint=eastwest;top=0;left=0;right=0;bottom=1;" parent="nY8UX26Kj-myHwL68--w-2" vertex="1">
          <mxGeometry y="30" width="180" height="30" as="geometry" />
        </mxCell>
        <mxCell id="nY8UX26Kj-myHwL68--w-4" value="PK" style="shape=partialRectangle;connectable=0;fillColor=none;top=0;left=0;bottom=0;right=0;fontStyle=1;overflow=hidden;whiteSpace=wrap;html=1;" parent="nY8UX26Kj-myHwL68--w-3" vertex="1">
          <mxGeometry width="30" height="30" as="geometry">
            <mxRectangle width="30" height="30" as="alternateBounds" />
          </mxGeometry>
        </mxCell>
        <mxCell id="nY8UX26Kj-myHwL68--w-5" value="ID" style="shape=partialRectangle;connectable=0;fillColor=none;top=0;left=0;bottom=0;right=0;align=left;spacingLeft=6;fontStyle=5;overflow=hidden;whiteSpace=wrap;html=1;" parent="nY8UX26Kj-myHwL68--w-3" vertex="1">
          <mxGeometry x="30" width="150" height="30" as="geometry">
            <mxRectangle width="150" height="30" as="alternateBounds" />
          </mxGeometry>
        </mxCell>
        <mxCell id="nY8UX26Kj-myHwL68--w-38" value="" style="shape=tableRow;horizontal=0;startSize=0;swimlaneHead=0;swimlaneBody=0;fillColor=none;collapsible=0;dropTarget=0;points=[[0,0.5],[1,0.5]];portConstraint=eastwest;top=0;left=0;right=0;bottom=0;" parent="nY8UX26Kj-myHwL68--w-2" vertex="1">
          <mxGeometry y="60" width="180" height="30" as="geometry" />
        </mxCell>
        <mxCell id="nY8UX26Kj-myHwL68--w-39" value="PK" style="shape=partialRectangle;connectable=0;fillColor=none;top=0;left=0;bottom=0;right=0;editable=1;overflow=hidden;" parent="nY8UX26Kj-myHwL68--w-38" vertex="1">
          <mxGeometry width="30" height="30" as="geometry">
            <mxRectangle width="30" height="30" as="alternateBounds" />
          </mxGeometry>
        </mxCell>
        <mxCell id="nY8UX26Kj-myHwL68--w-40" value="Email" style="shape=partialRectangle;connectable=0;fillColor=none;top=0;left=0;bottom=0;right=0;align=left;spacingLeft=6;overflow=hidden;" parent="nY8UX26Kj-myHwL68--w-38" vertex="1">
          <mxGeometry x="30" width="150" height="30" as="geometry">
            <mxRectangle width="150" height="30" as="alternateBounds" />
          </mxGeometry>
        </mxCell>
        <mxCell id="nY8UX26Kj-myHwL68--w-26" value="" style="shape=tableRow;horizontal=0;startSize=0;swimlaneHead=0;swimlaneBody=0;fillColor=none;collapsible=0;dropTarget=0;points=[[0,0.5],[1,0.5]];portConstraint=eastwest;top=0;left=0;right=0;bottom=0;" parent="nY8UX26Kj-myHwL68--w-2" vertex="1">
          <mxGeometry y="90" width="180" height="30" as="geometry" />
        </mxCell>
        <mxCell id="nY8UX26Kj-myHwL68--w-27" value="" style="shape=partialRectangle;connectable=0;fillColor=none;top=0;left=0;bottom=0;right=0;editable=1;overflow=hidden;" parent="nY8UX26Kj-myHwL68--w-26" vertex="1">
          <mxGeometry width="30" height="30" as="geometry">
            <mxRectangle width="30" height="30" as="alternateBounds" />
          </mxGeometry>
        </mxCell>
        <mxCell id="nY8UX26Kj-myHwL68--w-28" value="Name" style="shape=partialRectangle;connectable=0;fillColor=none;top=0;left=0;bottom=0;right=0;align=left;spacingLeft=6;overflow=hidden;" parent="nY8UX26Kj-myHwL68--w-26" vertex="1">
          <mxGeometry x="30" width="150" height="30" as="geometry">
            <mxRectangle width="150" height="30" as="alternateBounds" />
          </mxGeometry>
        </mxCell>
        <mxCell id="nY8UX26Kj-myHwL68--w-29" value="" style="shape=tableRow;horizontal=0;startSize=0;swimlaneHead=0;swimlaneBody=0;fillColor=none;collapsible=0;dropTarget=0;points=[[0,0.5],[1,0.5]];portConstraint=eastwest;top=0;left=0;right=0;bottom=0;" parent="nY8UX26Kj-myHwL68--w-2" vertex="1">
          <mxGeometry y="120" width="180" height="30" as="geometry" />
        </mxCell>
        <mxCell id="nY8UX26Kj-myHwL68--w-30" value="FK" style="shape=partialRectangle;connectable=0;fillColor=none;top=0;left=0;bottom=0;right=0;editable=1;overflow=hidden;" parent="nY8UX26Kj-myHwL68--w-29" vertex="1">
          <mxGeometry width="30" height="30" as="geometry">
            <mxRectangle width="30" height="30" as="alternateBounds" />
          </mxGeometry>
        </mxCell>
        <mxCell id="nY8UX26Kj-myHwL68--w-31" value="Departmant" style="shape=partialRectangle;connectable=0;fillColor=none;top=0;left=0;bottom=0;right=0;align=left;spacingLeft=6;overflow=hidden;" parent="nY8UX26Kj-myHwL68--w-29" vertex="1">
          <mxGeometry x="30" width="150" height="30" as="geometry">
            <mxRectangle width="150" height="30" as="alternateBounds" />
          </mxGeometry>
        </mxCell>
        <mxCell id="nY8UX26Kj-myHwL68--w-35" value="" style="shape=tableRow;horizontal=0;startSize=0;swimlaneHead=0;swimlaneBody=0;fillColor=none;collapsible=0;dropTarget=0;points=[[0,0.5],[1,0.5]];portConstraint=eastwest;top=0;left=0;right=0;bottom=0;" parent="nY8UX26Kj-myHwL68--w-2" vertex="1">
          <mxGeometry y="150" width="180" height="30" as="geometry" />
        </mxCell>
        <mxCell id="nY8UX26Kj-myHwL68--w-36" value="" style="shape=partialRectangle;connectable=0;fillColor=none;top=0;left=0;bottom=0;right=0;editable=1;overflow=hidden;" parent="nY8UX26Kj-myHwL68--w-35" vertex="1">
          <mxGeometry width="30" height="30" as="geometry">
            <mxRectangle width="30" height="30" as="alternateBounds" />
          </mxGeometry>
        </mxCell>
        <mxCell id="nY8UX26Kj-myHwL68--w-37" value="BirthYear" style="shape=partialRectangle;connectable=0;fillColor=none;top=0;left=0;bottom=0;right=0;align=left;spacingLeft=6;overflow=hidden;" parent="nY8UX26Kj-myHwL68--w-35" vertex="1">
          <mxGeometry x="30" width="150" height="30" as="geometry">
            <mxRectangle width="150" height="30" as="alternateBounds" />
          </mxGeometry>
        </mxCell>
        <mxCell id="kLBQWd9NSN7YNl4u3WYE-1" value="" style="shape=tableRow;horizontal=0;startSize=0;swimlaneHead=0;swimlaneBody=0;fillColor=none;collapsible=0;dropTarget=0;points=[[0,0.5],[1,0.5]];portConstraint=eastwest;top=0;left=0;right=0;bottom=0;" parent="nY8UX26Kj-myHwL68--w-2" vertex="1">
          <mxGeometry y="180" width="180" height="30" as="geometry" />
        </mxCell>
        <mxCell id="kLBQWd9NSN7YNl4u3WYE-2" value="" style="shape=partialRectangle;connectable=0;fillColor=none;top=0;left=0;bottom=0;right=0;editable=1;overflow=hidden;" parent="kLBQWd9NSN7YNl4u3WYE-1" vertex="1">
          <mxGeometry width="30" height="30" as="geometry">
            <mxRectangle width="30" height="30" as="alternateBounds" />
          </mxGeometry>
        </mxCell>
        <mxCell id="kLBQWd9NSN7YNl4u3WYE-3" value="TcKimlikNo" style="shape=partialRectangle;connectable=0;fillColor=none;top=0;left=0;bottom=0;right=0;align=left;spacingLeft=6;overflow=hidden;" parent="kLBQWd9NSN7YNl4u3WYE-1" vertex="1">
          <mxGeometry x="30" width="150" height="30" as="geometry">
            <mxRectangle width="150" height="30" as="alternateBounds" />
          </mxGeometry>
        </mxCell>
        <mxCell id="nY8UX26Kj-myHwL68--w-15" value="Internship" style="shape=table;startSize=30;container=1;collapsible=1;childLayout=tableLayout;fixedRows=1;rowLines=0;fontStyle=1;align=center;resizeLast=1;html=1;fillColor=#1ba1e2;fontColor=#ffffff;strokeColor=#006EAF;" parent="1" vertex="1">
          <mxGeometry x="306" y="580" width="180" height="300" as="geometry" />
        </mxCell>
        <mxCell id="nY8UX26Kj-myHwL68--w-16" value="" style="shape=tableRow;horizontal=0;startSize=0;swimlaneHead=0;swimlaneBody=0;fillColor=none;collapsible=0;dropTarget=0;points=[[0,0.5],[1,0.5]];portConstraint=eastwest;top=0;left=0;right=0;bottom=1;" parent="nY8UX26Kj-myHwL68--w-15" vertex="1">
          <mxGeometry y="30" width="180" height="30" as="geometry" />
        </mxCell>
        <mxCell id="nY8UX26Kj-myHwL68--w-17" value="PK" style="shape=partialRectangle;connectable=0;fillColor=none;top=0;left=0;bottom=0;right=0;fontStyle=1;overflow=hidden;whiteSpace=wrap;html=1;" parent="nY8UX26Kj-myHwL68--w-16" vertex="1">
          <mxGeometry width="30" height="30" as="geometry">
            <mxRectangle width="30" height="30" as="alternateBounds" />
          </mxGeometry>
        </mxCell>
        <mxCell id="nY8UX26Kj-myHwL68--w-18" value="ID" style="shape=partialRectangle;connectable=0;fillColor=none;top=0;left=0;bottom=0;right=0;align=left;spacingLeft=6;fontStyle=5;overflow=hidden;whiteSpace=wrap;html=1;" parent="nY8UX26Kj-myHwL68--w-16" vertex="1">
          <mxGeometry x="30" width="150" height="30" as="geometry">
            <mxRectangle width="150" height="30" as="alternateBounds" />
          </mxGeometry>
        </mxCell>
        <mxCell id="nY8UX26Kj-myHwL68--w-22" value="" style="shape=tableRow;horizontal=0;startSize=0;swimlaneHead=0;swimlaneBody=0;fillColor=none;collapsible=0;dropTarget=0;points=[[0,0.5],[1,0.5]];portConstraint=eastwest;top=0;left=0;right=0;bottom=0;" parent="nY8UX26Kj-myHwL68--w-15" vertex="1">
          <mxGeometry y="60" width="180" height="30" as="geometry" />
        </mxCell>
        <mxCell id="nY8UX26Kj-myHwL68--w-23" value="" style="shape=partialRectangle;connectable=0;fillColor=none;top=0;left=0;bottom=0;right=0;editable=1;overflow=hidden;whiteSpace=wrap;html=1;" parent="nY8UX26Kj-myHwL68--w-22" vertex="1">
          <mxGeometry width="30" height="30" as="geometry">
            <mxRectangle width="30" height="30" as="alternateBounds" />
          </mxGeometry>
        </mxCell>
        <mxCell id="nY8UX26Kj-myHwL68--w-24" value="StartDate" style="shape=partialRectangle;connectable=0;fillColor=none;top=0;left=0;bottom=0;right=0;align=left;spacingLeft=6;overflow=hidden;whiteSpace=wrap;html=1;" parent="nY8UX26Kj-myHwL68--w-22" vertex="1">
          <mxGeometry x="30" width="150" height="30" as="geometry">
            <mxRectangle width="150" height="30" as="alternateBounds" />
          </mxGeometry>
        </mxCell>
        <mxCell id="nY8UX26Kj-myHwL68--w-66" value="" style="shape=tableRow;horizontal=0;startSize=0;swimlaneHead=0;swimlaneBody=0;fillColor=none;collapsible=0;dropTarget=0;points=[[0,0.5],[1,0.5]];portConstraint=eastwest;top=0;left=0;right=0;bottom=0;" parent="nY8UX26Kj-myHwL68--w-15" vertex="1">
          <mxGeometry y="90" width="180" height="30" as="geometry" />
        </mxCell>
        <mxCell id="nY8UX26Kj-myHwL68--w-67" value="" style="shape=partialRectangle;connectable=0;fillColor=none;top=0;left=0;bottom=0;right=0;editable=1;overflow=hidden;" parent="nY8UX26Kj-myHwL68--w-66" vertex="1">
          <mxGeometry width="30" height="30" as="geometry">
            <mxRectangle width="30" height="30" as="alternateBounds" />
          </mxGeometry>
        </mxCell>
        <mxCell id="nY8UX26Kj-myHwL68--w-68" value="EndDate" style="shape=partialRectangle;connectable=0;fillColor=none;top=0;left=0;bottom=0;right=0;align=left;spacingLeft=6;overflow=hidden;" parent="nY8UX26Kj-myHwL68--w-66" vertex="1">
          <mxGeometry x="30" width="150" height="30" as="geometry">
            <mxRectangle width="150" height="30" as="alternateBounds" />
          </mxGeometry>
        </mxCell>
        <mxCell id="kXPxiJEo-uaLyjx1TCJ7-29" value="" style="shape=tableRow;horizontal=0;startSize=0;swimlaneHead=0;swimlaneBody=0;fillColor=none;collapsible=0;dropTarget=0;points=[[0,0.5],[1,0.5]];portConstraint=eastwest;top=0;left=0;right=0;bottom=0;" parent="nY8UX26Kj-myHwL68--w-15" vertex="1">
          <mxGeometry y="120" width="180" height="30" as="geometry" />
        </mxCell>
        <mxCell id="kXPxiJEo-uaLyjx1TCJ7-30" value="FK" style="shape=partialRectangle;connectable=0;fillColor=none;top=0;left=0;bottom=0;right=0;editable=1;overflow=hidden;" parent="kXPxiJEo-uaLyjx1TCJ7-29" vertex="1">
          <mxGeometry width="30" height="30" as="geometry">
            <mxRectangle width="30" height="30" as="alternateBounds" />
          </mxGeometry>
        </mxCell>
        <mxCell id="kXPxiJEo-uaLyjx1TCJ7-31" value="Company" style="shape=partialRectangle;connectable=0;fillColor=none;top=0;left=0;bottom=0;right=0;align=left;spacingLeft=6;overflow=hidden;" parent="kXPxiJEo-uaLyjx1TCJ7-29" vertex="1">
          <mxGeometry x="30" width="150" height="30" as="geometry">
            <mxRectangle width="150" height="30" as="alternateBounds" />
          </mxGeometry>
        </mxCell>
        <mxCell id="tTwWDigwR79bLjJktAVs-38" value="" style="shape=tableRow;horizontal=0;startSize=0;swimlaneHead=0;swimlaneBody=0;fillColor=none;collapsible=0;dropTarget=0;points=[[0,0.5],[1,0.5]];portConstraint=eastwest;top=0;left=0;right=0;bottom=0;" parent="nY8UX26Kj-myHwL68--w-15" vertex="1">
          <mxGeometry y="150" width="180" height="30" as="geometry" />
        </mxCell>
        <mxCell id="tTwWDigwR79bLjJktAVs-39" value="FK" style="shape=partialRectangle;connectable=0;fillColor=none;top=0;left=0;bottom=0;right=0;editable=1;overflow=hidden;" parent="tTwWDigwR79bLjJktAVs-38" vertex="1">
          <mxGeometry width="30" height="30" as="geometry">
            <mxRectangle width="30" height="30" as="alternateBounds" />
          </mxGeometry>
        </mxCell>
        <mxCell id="tTwWDigwR79bLjJktAVs-40" value="StatusID" style="shape=partialRectangle;connectable=0;fillColor=none;top=0;left=0;bottom=0;right=0;align=left;spacingLeft=6;overflow=hidden;" parent="tTwWDigwR79bLjJktAVs-38" vertex="1">
          <mxGeometry x="30" width="150" height="30" as="geometry">
            <mxRectangle width="150" height="30" as="alternateBounds" />
          </mxGeometry>
        </mxCell>
        <mxCell id="G_9sbRUCT73YD4NC6Vph-29" value="" style="shape=tableRow;horizontal=0;startSize=0;swimlaneHead=0;swimlaneBody=0;fillColor=none;collapsible=0;dropTarget=0;points=[[0,0.5],[1,0.5]];portConstraint=eastwest;top=0;left=0;right=0;bottom=0;" parent="nY8UX26Kj-myHwL68--w-15" vertex="1">
          <mxGeometry y="180" width="180" height="30" as="geometry" />
        </mxCell>
        <mxCell id="G_9sbRUCT73YD4NC6Vph-30" value="FK" style="shape=partialRectangle;connectable=0;fillColor=none;top=0;left=0;bottom=0;right=0;editable=1;overflow=hidden;" parent="G_9sbRUCT73YD4NC6Vph-29" vertex="1">
          <mxGeometry width="30" height="30" as="geometry">
            <mxRectangle width="30" height="30" as="alternateBounds" />
          </mxGeometry>
        </mxCell>
        <mxCell id="G_9sbRUCT73YD4NC6Vph-31" value="Employer" style="shape=partialRectangle;connectable=0;fillColor=none;top=0;left=0;bottom=0;right=0;align=left;spacingLeft=6;overflow=hidden;" parent="G_9sbRUCT73YD4NC6Vph-29" vertex="1">
          <mxGeometry x="30" width="150" height="30" as="geometry">
            <mxRectangle width="150" height="30" as="alternateBounds" />
          </mxGeometry>
        </mxCell>
        <mxCell id="3EvNorCOM8IKDYJuv2oa-41" value="" style="shape=tableRow;horizontal=0;startSize=0;swimlaneHead=0;swimlaneBody=0;fillColor=none;collapsible=0;dropTarget=0;points=[[0,0.5],[1,0.5]];portConstraint=eastwest;top=0;left=0;right=0;bottom=0;" parent="nY8UX26Kj-myHwL68--w-15" vertex="1">
          <mxGeometry y="210" width="180" height="30" as="geometry" />
        </mxCell>
        <mxCell id="3EvNorCOM8IKDYJuv2oa-42" value="FK" style="shape=partialRectangle;connectable=0;fillColor=none;top=0;left=0;bottom=0;right=0;editable=1;overflow=hidden;" parent="3EvNorCOM8IKDYJuv2oa-41" vertex="1">
          <mxGeometry width="30" height="30" as="geometry">
            <mxRectangle width="30" height="30" as="alternateBounds" />
          </mxGeometry>
        </mxCell>
        <mxCell id="3EvNorCOM8IKDYJuv2oa-43" value="UserID" style="shape=partialRectangle;connectable=0;fillColor=none;top=0;left=0;bottom=0;right=0;align=left;spacingLeft=6;overflow=hidden;" parent="3EvNorCOM8IKDYJuv2oa-41" vertex="1">
          <mxGeometry x="30" width="150" height="30" as="geometry">
            <mxRectangle width="150" height="30" as="alternateBounds" />
          </mxGeometry>
        </mxCell>
        <mxCell id="WhrVaaGN8TkzlCc49Z0P-28" value="" style="shape=tableRow;horizontal=0;startSize=0;swimlaneHead=0;swimlaneBody=0;fillColor=none;collapsible=0;dropTarget=0;points=[[0,0.5],[1,0.5]];portConstraint=eastwest;top=0;left=0;right=0;bottom=0;" parent="nY8UX26Kj-myHwL68--w-15" vertex="1">
          <mxGeometry y="240" width="180" height="30" as="geometry" />
        </mxCell>
        <mxCell id="WhrVaaGN8TkzlCc49Z0P-29" value="" style="shape=partialRectangle;connectable=0;fillColor=none;top=0;left=0;bottom=0;right=0;editable=1;overflow=hidden;" parent="WhrVaaGN8TkzlCc49Z0P-28" vertex="1">
          <mxGeometry width="30" height="30" as="geometry">
            <mxRectangle width="30" height="30" as="alternateBounds" />
          </mxGeometry>
        </mxCell>
        <mxCell id="WhrVaaGN8TkzlCc49Z0P-30" value="TotalDays" style="shape=partialRectangle;connectable=0;fillColor=none;top=0;left=0;bottom=0;right=0;align=left;spacingLeft=6;overflow=hidden;" parent="WhrVaaGN8TkzlCc49Z0P-28" vertex="1">
          <mxGeometry x="30" width="150" height="30" as="geometry">
            <mxRectangle width="150" height="30" as="alternateBounds" />
          </mxGeometry>
        </mxCell>
        <mxCell id="WhrVaaGN8TkzlCc49Z0P-31" value="" style="shape=tableRow;horizontal=0;startSize=0;swimlaneHead=0;swimlaneBody=0;fillColor=none;collapsible=0;dropTarget=0;points=[[0,0.5],[1,0.5]];portConstraint=eastwest;top=0;left=0;right=0;bottom=0;" parent="nY8UX26Kj-myHwL68--w-15" vertex="1">
          <mxGeometry y="270" width="180" height="30" as="geometry" />
        </mxCell>
        <mxCell id="WhrVaaGN8TkzlCc49Z0P-32" value="" style="shape=partialRectangle;connectable=0;fillColor=none;top=0;left=0;bottom=0;right=0;editable=1;overflow=hidden;" parent="WhrVaaGN8TkzlCc49Z0P-31" vertex="1">
          <mxGeometry width="30" height="30" as="geometry">
            <mxRectangle width="30" height="30" as="alternateBounds" />
          </mxGeometry>
        </mxCell>
        <mxCell id="WhrVaaGN8TkzlCc49Z0P-33" value="InsuranceType" style="shape=partialRectangle;connectable=0;fillColor=none;top=0;left=0;bottom=0;right=0;align=left;spacingLeft=6;overflow=hidden;" parent="WhrVaaGN8TkzlCc49Z0P-31" vertex="1">
          <mxGeometry x="30" width="150" height="30" as="geometry">
            <mxRectangle width="150" height="30" as="alternateBounds" />
          </mxGeometry>
        </mxCell>
        <mxCell id="nY8UX26Kj-myHwL68--w-41" value="Company" style="shape=table;startSize=30;container=1;collapsible=1;childLayout=tableLayout;fixedRows=1;rowLines=0;fontStyle=1;align=center;resizeLast=1;html=1;fillColor=#6a00ff;fontColor=#ffffff;strokeColor=#3700CC;" parent="1" vertex="1">
          <mxGeometry x="630" y="807.5" width="180" height="353" as="geometry" />
        </mxCell>
        <mxCell id="nY8UX26Kj-myHwL68--w-42" value="" style="shape=tableRow;horizontal=0;startSize=0;swimlaneHead=0;swimlaneBody=0;fillColor=none;collapsible=0;dropTarget=0;points=[[0,0.5],[1,0.5]];portConstraint=eastwest;top=0;left=0;right=0;bottom=1;" parent="nY8UX26Kj-myHwL68--w-41" vertex="1">
          <mxGeometry y="30" width="180" height="53" as="geometry" />
        </mxCell>
        <mxCell id="nY8UX26Kj-myHwL68--w-43" value="PK" style="shape=partialRectangle;connectable=0;fillColor=none;top=0;left=0;bottom=0;right=0;fontStyle=1;overflow=hidden;whiteSpace=wrap;html=1;" parent="nY8UX26Kj-myHwL68--w-42" vertex="1">
          <mxGeometry width="30" height="53" as="geometry">
            <mxRectangle width="30" height="53" as="alternateBounds" />
          </mxGeometry>
        </mxCell>
        <mxCell id="nY8UX26Kj-myHwL68--w-44" value="ID" style="shape=partialRectangle;connectable=0;fillColor=none;top=0;left=0;bottom=0;right=0;align=left;spacingLeft=6;fontStyle=5;overflow=hidden;whiteSpace=wrap;html=1;" parent="nY8UX26Kj-myHwL68--w-42" vertex="1">
          <mxGeometry x="30" width="150" height="53" as="geometry">
            <mxRectangle width="150" height="53" as="alternateBounds" />
          </mxGeometry>
        </mxCell>
        <mxCell id="nY8UX26Kj-myHwL68--w-45" value="" style="shape=tableRow;horizontal=0;startSize=0;swimlaneHead=0;swimlaneBody=0;fillColor=none;collapsible=0;dropTarget=0;points=[[0,0.5],[1,0.5]];portConstraint=eastwest;top=0;left=0;right=0;bottom=0;" parent="nY8UX26Kj-myHwL68--w-41" vertex="1">
          <mxGeometry y="83" width="180" height="30" as="geometry" />
        </mxCell>
        <mxCell id="nY8UX26Kj-myHwL68--w-46" value="" style="shape=partialRectangle;connectable=0;fillColor=none;top=0;left=0;bottom=0;right=0;editable=1;overflow=hidden;whiteSpace=wrap;html=1;" parent="nY8UX26Kj-myHwL68--w-45" vertex="1">
          <mxGeometry width="30" height="30" as="geometry">
            <mxRectangle width="30" height="30" as="alternateBounds" />
          </mxGeometry>
        </mxCell>
        <mxCell id="nY8UX26Kj-myHwL68--w-47" value="Name" style="shape=partialRectangle;connectable=0;fillColor=none;top=0;left=0;bottom=0;right=0;align=left;spacingLeft=6;overflow=hidden;whiteSpace=wrap;html=1;" parent="nY8UX26Kj-myHwL68--w-45" vertex="1">
          <mxGeometry x="30" width="150" height="30" as="geometry">
            <mxRectangle width="150" height="30" as="alternateBounds" />
          </mxGeometry>
        </mxCell>
        <mxCell id="nY8UX26Kj-myHwL68--w-48" value="" style="shape=tableRow;horizontal=0;startSize=0;swimlaneHead=0;swimlaneBody=0;fillColor=none;collapsible=0;dropTarget=0;points=[[0,0.5],[1,0.5]];portConstraint=eastwest;top=0;left=0;right=0;bottom=0;" parent="nY8UX26Kj-myHwL68--w-41" vertex="1">
          <mxGeometry y="113" width="180" height="30" as="geometry" />
        </mxCell>
        <mxCell id="nY8UX26Kj-myHwL68--w-49" value="" style="shape=partialRectangle;connectable=0;fillColor=none;top=0;left=0;bottom=0;right=0;editable=1;overflow=hidden;" parent="nY8UX26Kj-myHwL68--w-48" vertex="1">
          <mxGeometry width="30" height="30" as="geometry">
            <mxRectangle width="30" height="30" as="alternateBounds" />
          </mxGeometry>
        </mxCell>
        <mxCell id="nY8UX26Kj-myHwL68--w-50" value="Address" style="shape=partialRectangle;connectable=0;fillColor=none;top=0;left=0;bottom=0;right=0;align=left;spacingLeft=6;overflow=hidden;" parent="nY8UX26Kj-myHwL68--w-48" vertex="1">
          <mxGeometry x="30" width="150" height="30" as="geometry">
            <mxRectangle width="150" height="30" as="alternateBounds" />
          </mxGeometry>
        </mxCell>
        <mxCell id="nY8UX26Kj-myHwL68--w-51" value="" style="shape=tableRow;horizontal=0;startSize=0;swimlaneHead=0;swimlaneBody=0;fillColor=none;collapsible=0;dropTarget=0;points=[[0,0.5],[1,0.5]];portConstraint=eastwest;top=0;left=0;right=0;bottom=0;" parent="nY8UX26Kj-myHwL68--w-41" vertex="1">
          <mxGeometry y="143" width="180" height="30" as="geometry" />
        </mxCell>
        <mxCell id="nY8UX26Kj-myHwL68--w-52" value="" style="shape=partialRectangle;connectable=0;fillColor=none;top=0;left=0;bottom=0;right=0;editable=1;overflow=hidden;whiteSpace=wrap;html=1;" parent="nY8UX26Kj-myHwL68--w-51" vertex="1">
          <mxGeometry width="30" height="30" as="geometry">
            <mxRectangle width="30" height="30" as="alternateBounds" />
          </mxGeometry>
        </mxCell>
        <mxCell id="nY8UX26Kj-myHwL68--w-53" value="ServiceArea" style="shape=partialRectangle;connectable=0;fillColor=none;top=0;left=0;bottom=0;right=0;align=left;spacingLeft=6;overflow=hidden;whiteSpace=wrap;html=1;" parent="nY8UX26Kj-myHwL68--w-51" vertex="1">
          <mxGeometry x="30" width="150" height="30" as="geometry">
            <mxRectangle width="150" height="30" as="alternateBounds" />
          </mxGeometry>
        </mxCell>
        <mxCell id="nY8UX26Kj-myHwL68--w-54" value="" style="shape=tableRow;horizontal=0;startSize=0;swimlaneHead=0;swimlaneBody=0;fillColor=none;collapsible=0;dropTarget=0;points=[[0,0.5],[1,0.5]];portConstraint=eastwest;top=0;left=0;right=0;bottom=0;" parent="nY8UX26Kj-myHwL68--w-41" vertex="1">
          <mxGeometry y="173" width="180" height="30" as="geometry" />
        </mxCell>
        <mxCell id="nY8UX26Kj-myHwL68--w-55" value="" style="shape=partialRectangle;connectable=0;fillColor=none;top=0;left=0;bottom=0;right=0;editable=1;overflow=hidden;" parent="nY8UX26Kj-myHwL68--w-54" vertex="1">
          <mxGeometry width="30" height="30" as="geometry">
            <mxRectangle width="30" height="30" as="alternateBounds" />
          </mxGeometry>
        </mxCell>
        <mxCell id="nY8UX26Kj-myHwL68--w-56" value="Phone" style="shape=partialRectangle;connectable=0;fillColor=none;top=0;left=0;bottom=0;right=0;align=left;spacingLeft=6;overflow=hidden;" parent="nY8UX26Kj-myHwL68--w-54" vertex="1">
          <mxGeometry x="30" width="150" height="30" as="geometry">
            <mxRectangle width="150" height="30" as="alternateBounds" />
          </mxGeometry>
        </mxCell>
        <mxCell id="nY8UX26Kj-myHwL68--w-57" value="" style="shape=tableRow;horizontal=0;startSize=0;swimlaneHead=0;swimlaneBody=0;fillColor=none;collapsible=0;dropTarget=0;points=[[0,0.5],[1,0.5]];portConstraint=eastwest;top=0;left=0;right=0;bottom=0;" parent="nY8UX26Kj-myHwL68--w-41" vertex="1">
          <mxGeometry y="203" width="180" height="30" as="geometry" />
        </mxCell>
        <mxCell id="nY8UX26Kj-myHwL68--w-58" value="" style="shape=partialRectangle;connectable=0;fillColor=none;top=0;left=0;bottom=0;right=0;editable=1;overflow=hidden;" parent="nY8UX26Kj-myHwL68--w-57" vertex="1">
          <mxGeometry width="30" height="30" as="geometry">
            <mxRectangle width="30" height="30" as="alternateBounds" />
          </mxGeometry>
        </mxCell>
        <mxCell id="nY8UX26Kj-myHwL68--w-59" value="EmailAddress" style="shape=partialRectangle;connectable=0;fillColor=none;top=0;left=0;bottom=0;right=0;align=left;spacingLeft=6;overflow=hidden;" parent="nY8UX26Kj-myHwL68--w-57" vertex="1">
          <mxGeometry x="30" width="150" height="30" as="geometry">
            <mxRectangle width="150" height="30" as="alternateBounds" />
          </mxGeometry>
        </mxCell>
        <mxCell id="nY8UX26Kj-myHwL68--w-60" value="" style="shape=tableRow;horizontal=0;startSize=0;swimlaneHead=0;swimlaneBody=0;fillColor=none;collapsible=0;dropTarget=0;points=[[0,0.5],[1,0.5]];portConstraint=eastwest;top=0;left=0;right=0;bottom=0;" parent="nY8UX26Kj-myHwL68--w-41" vertex="1">
          <mxGeometry y="233" width="180" height="30" as="geometry" />
        </mxCell>
        <mxCell id="nY8UX26Kj-myHwL68--w-61" value="" style="shape=partialRectangle;connectable=0;fillColor=none;top=0;left=0;bottom=0;right=0;editable=1;overflow=hidden;" parent="nY8UX26Kj-myHwL68--w-60" vertex="1">
          <mxGeometry width="30" height="30" as="geometry">
            <mxRectangle width="30" height="30" as="alternateBounds" />
          </mxGeometry>
        </mxCell>
        <mxCell id="nY8UX26Kj-myHwL68--w-62" value="WebAddress" style="shape=partialRectangle;connectable=0;fillColor=none;top=0;left=0;bottom=0;right=0;align=left;spacingLeft=6;overflow=hidden;" parent="nY8UX26Kj-myHwL68--w-60" vertex="1">
          <mxGeometry x="30" width="150" height="30" as="geometry">
            <mxRectangle width="150" height="30" as="alternateBounds" />
          </mxGeometry>
        </mxCell>
        <mxCell id="WhrVaaGN8TkzlCc49Z0P-34" value="" style="shape=tableRow;horizontal=0;startSize=0;swimlaneHead=0;swimlaneBody=0;fillColor=none;collapsible=0;dropTarget=0;points=[[0,0.5],[1,0.5]];portConstraint=eastwest;top=0;left=0;right=0;bottom=0;" parent="nY8UX26Kj-myHwL68--w-41" vertex="1">
          <mxGeometry y="263" width="180" height="30" as="geometry" />
        </mxCell>
        <mxCell id="WhrVaaGN8TkzlCc49Z0P-35" value="" style="shape=partialRectangle;connectable=0;fillColor=none;top=0;left=0;bottom=0;right=0;editable=1;overflow=hidden;" parent="WhrVaaGN8TkzlCc49Z0P-34" vertex="1">
          <mxGeometry width="30" height="30" as="geometry">
            <mxRectangle width="30" height="30" as="alternateBounds" />
          </mxGeometry>
        </mxCell>
        <mxCell id="WhrVaaGN8TkzlCc49Z0P-36" value="TaxNumber" style="shape=partialRectangle;connectable=0;fillColor=none;top=0;left=0;bottom=0;right=0;align=left;spacingLeft=6;overflow=hidden;" parent="WhrVaaGN8TkzlCc49Z0P-34" vertex="1">
          <mxGeometry x="30" width="150" height="30" as="geometry">
            <mxRectangle width="150" height="30" as="alternateBounds" />
          </mxGeometry>
        </mxCell>
        <mxCell id="WhrVaaGN8TkzlCc49Z0P-37" value="" style="shape=tableRow;horizontal=0;startSize=0;swimlaneHead=0;swimlaneBody=0;fillColor=none;collapsible=0;dropTarget=0;points=[[0,0.5],[1,0.5]];portConstraint=eastwest;top=0;left=0;right=0;bottom=0;" parent="nY8UX26Kj-myHwL68--w-41" vertex="1">
          <mxGeometry y="293" width="180" height="30" as="geometry" />
        </mxCell>
        <mxCell id="WhrVaaGN8TkzlCc49Z0P-38" value="" style="shape=partialRectangle;connectable=0;fillColor=none;top=0;left=0;bottom=0;right=0;editable=1;overflow=hidden;" parent="WhrVaaGN8TkzlCc49Z0P-37" vertex="1">
          <mxGeometry width="30" height="30" as="geometry">
            <mxRectangle width="30" height="30" as="alternateBounds" />
          </mxGeometry>
        </mxCell>
        <mxCell id="WhrVaaGN8TkzlCc49Z0P-39" value="FaxNumber" style="shape=partialRectangle;connectable=0;fillColor=none;top=0;left=0;bottom=0;right=0;align=left;spacingLeft=6;overflow=hidden;" parent="WhrVaaGN8TkzlCc49Z0P-37" vertex="1">
          <mxGeometry x="30" width="150" height="30" as="geometry">
            <mxRectangle width="150" height="30" as="alternateBounds" />
          </mxGeometry>
        </mxCell>
        <mxCell id="WhrVaaGN8TkzlCc49Z0P-40" value="" style="shape=tableRow;horizontal=0;startSize=0;swimlaneHead=0;swimlaneBody=0;fillColor=none;collapsible=0;dropTarget=0;points=[[0,0.5],[1,0.5]];portConstraint=eastwest;top=0;left=0;right=0;bottom=0;" parent="nY8UX26Kj-myHwL68--w-41" vertex="1">
          <mxGeometry y="323" width="180" height="30" as="geometry" />
        </mxCell>
        <mxCell id="WhrVaaGN8TkzlCc49Z0P-41" value="" style="shape=partialRectangle;connectable=0;fillColor=none;top=0;left=0;bottom=0;right=0;editable=1;overflow=hidden;" parent="WhrVaaGN8TkzlCc49Z0P-40" vertex="1">
          <mxGeometry width="30" height="30" as="geometry">
            <mxRectangle width="30" height="30" as="alternateBounds" />
          </mxGeometry>
        </mxCell>
        <mxCell id="WhrVaaGN8TkzlCc49Z0P-42" value="ApprovedBy" style="shape=partialRectangle;connectable=0;fillColor=none;top=0;left=0;bottom=0;right=0;align=left;spacingLeft=6;overflow=hidden;" parent="WhrVaaGN8TkzlCc49Z0P-40" vertex="1">
          <mxGeometry x="30" width="150" height="30" as="geometry">
            <mxRectangle width="150" height="30" as="alternateBounds" />
          </mxGeometry>
        </mxCell>
        <mxCell id="nY8UX26Kj-myHwL68--w-72" value="Suprevisor" style="shape=table;startSize=30;container=1;collapsible=1;childLayout=tableLayout;fixedRows=1;rowLines=0;fontStyle=1;align=center;resizeLast=1;html=1;fillColor=#008a00;fontColor=#ffffff;strokeColor=#005700;" parent="1" vertex="1">
          <mxGeometry x="302" y="980" width="180" height="180" as="geometry" />
        </mxCell>
        <mxCell id="nY8UX26Kj-myHwL68--w-73" value="" style="shape=tableRow;horizontal=0;startSize=0;swimlaneHead=0;swimlaneBody=0;fillColor=none;collapsible=0;dropTarget=0;points=[[0,0.5],[1,0.5]];portConstraint=eastwest;top=0;left=0;right=0;bottom=1;" parent="nY8UX26Kj-myHwL68--w-72" vertex="1">
          <mxGeometry y="30" width="180" height="30" as="geometry" />
        </mxCell>
        <mxCell id="nY8UX26Kj-myHwL68--w-74" value="PK" style="shape=partialRectangle;connectable=0;fillColor=none;top=0;left=0;bottom=0;right=0;fontStyle=1;overflow=hidden;whiteSpace=wrap;html=1;" parent="nY8UX26Kj-myHwL68--w-73" vertex="1">
          <mxGeometry width="30" height="30" as="geometry">
            <mxRectangle width="30" height="30" as="alternateBounds" />
          </mxGeometry>
        </mxCell>
        <mxCell id="nY8UX26Kj-myHwL68--w-75" value="ID" style="shape=partialRectangle;connectable=0;fillColor=none;top=0;left=0;bottom=0;right=0;align=left;spacingLeft=6;fontStyle=5;overflow=hidden;whiteSpace=wrap;html=1;" parent="nY8UX26Kj-myHwL68--w-73" vertex="1">
          <mxGeometry x="30" width="150" height="30" as="geometry">
            <mxRectangle width="150" height="30" as="alternateBounds" />
          </mxGeometry>
        </mxCell>
        <mxCell id="nY8UX26Kj-myHwL68--w-76" value="" style="shape=tableRow;horizontal=0;startSize=0;swimlaneHead=0;swimlaneBody=0;fillColor=none;collapsible=0;dropTarget=0;points=[[0,0.5],[1,0.5]];portConstraint=eastwest;top=0;left=0;right=0;bottom=0;" parent="nY8UX26Kj-myHwL68--w-72" vertex="1">
          <mxGeometry y="60" width="180" height="30" as="geometry" />
        </mxCell>
        <mxCell id="nY8UX26Kj-myHwL68--w-77" value="" style="shape=partialRectangle;connectable=0;fillColor=none;top=0;left=0;bottom=0;right=0;editable=1;overflow=hidden;whiteSpace=wrap;html=1;" parent="nY8UX26Kj-myHwL68--w-76" vertex="1">
          <mxGeometry width="30" height="30" as="geometry">
            <mxRectangle width="30" height="30" as="alternateBounds" />
          </mxGeometry>
        </mxCell>
        <mxCell id="nY8UX26Kj-myHwL68--w-78" value="Name" style="shape=partialRectangle;connectable=0;fillColor=none;top=0;left=0;bottom=0;right=0;align=left;spacingLeft=6;overflow=hidden;whiteSpace=wrap;html=1;" parent="nY8UX26Kj-myHwL68--w-76" vertex="1">
          <mxGeometry x="30" width="150" height="30" as="geometry">
            <mxRectangle width="150" height="30" as="alternateBounds" />
          </mxGeometry>
        </mxCell>
        <mxCell id="nY8UX26Kj-myHwL68--w-79" value="" style="shape=tableRow;horizontal=0;startSize=0;swimlaneHead=0;swimlaneBody=0;fillColor=none;collapsible=0;dropTarget=0;points=[[0,0.5],[1,0.5]];portConstraint=eastwest;top=0;left=0;right=0;bottom=0;" parent="nY8UX26Kj-myHwL68--w-72" vertex="1">
          <mxGeometry y="90" width="180" height="30" as="geometry" />
        </mxCell>
        <mxCell id="nY8UX26Kj-myHwL68--w-80" value="" style="shape=partialRectangle;connectable=0;fillColor=none;top=0;left=0;bottom=0;right=0;editable=1;overflow=hidden;" parent="nY8UX26Kj-myHwL68--w-79" vertex="1">
          <mxGeometry width="30" height="30" as="geometry">
            <mxRectangle width="30" height="30" as="alternateBounds" />
          </mxGeometry>
        </mxCell>
        <mxCell id="nY8UX26Kj-myHwL68--w-81" value="Title" style="shape=partialRectangle;connectable=0;fillColor=none;top=0;left=0;bottom=0;right=0;align=left;spacingLeft=6;overflow=hidden;" parent="nY8UX26Kj-myHwL68--w-79" vertex="1">
          <mxGeometry x="30" width="150" height="30" as="geometry">
            <mxRectangle width="150" height="30" as="alternateBounds" />
          </mxGeometry>
        </mxCell>
        <mxCell id="nY8UX26Kj-myHwL68--w-82" value="" style="shape=tableRow;horizontal=0;startSize=0;swimlaneHead=0;swimlaneBody=0;fillColor=none;collapsible=0;dropTarget=0;points=[[0,0.5],[1,0.5]];portConstraint=eastwest;top=0;left=0;right=0;bottom=0;" parent="nY8UX26Kj-myHwL68--w-72" vertex="1">
          <mxGeometry y="120" width="180" height="30" as="geometry" />
        </mxCell>
        <mxCell id="nY8UX26Kj-myHwL68--w-83" value="" style="shape=partialRectangle;connectable=0;fillColor=none;top=0;left=0;bottom=0;right=0;editable=1;overflow=hidden;whiteSpace=wrap;html=1;" parent="nY8UX26Kj-myHwL68--w-82" vertex="1">
          <mxGeometry width="30" height="30" as="geometry">
            <mxRectangle width="30" height="30" as="alternateBounds" />
          </mxGeometry>
        </mxCell>
        <mxCell id="nY8UX26Kj-myHwL68--w-84" value="Email" style="shape=partialRectangle;connectable=0;fillColor=none;top=0;left=0;bottom=0;right=0;align=left;spacingLeft=6;overflow=hidden;whiteSpace=wrap;html=1;" parent="nY8UX26Kj-myHwL68--w-82" vertex="1">
          <mxGeometry x="30" width="150" height="30" as="geometry">
            <mxRectangle width="150" height="30" as="alternateBounds" />
          </mxGeometry>
        </mxCell>
        <mxCell id="G_9sbRUCT73YD4NC6Vph-32" value="" style="shape=tableRow;horizontal=0;startSize=0;swimlaneHead=0;swimlaneBody=0;fillColor=none;collapsible=0;dropTarget=0;points=[[0,0.5],[1,0.5]];portConstraint=eastwest;top=0;left=0;right=0;bottom=0;" parent="nY8UX26Kj-myHwL68--w-72" vertex="1">
          <mxGeometry y="150" width="180" height="30" as="geometry" />
        </mxCell>
        <mxCell id="G_9sbRUCT73YD4NC6Vph-33" value="FK" style="shape=partialRectangle;connectable=0;fillColor=none;top=0;left=0;bottom=0;right=0;editable=1;overflow=hidden;whiteSpace=wrap;html=1;" parent="G_9sbRUCT73YD4NC6Vph-32" vertex="1">
          <mxGeometry width="30" height="30" as="geometry">
            <mxRectangle width="30" height="30" as="alternateBounds" />
          </mxGeometry>
        </mxCell>
        <mxCell id="G_9sbRUCT73YD4NC6Vph-34" value="Company" style="shape=partialRectangle;connectable=0;fillColor=none;top=0;left=0;bottom=0;right=0;align=left;spacingLeft=6;overflow=hidden;whiteSpace=wrap;html=1;" parent="G_9sbRUCT73YD4NC6Vph-32" vertex="1">
          <mxGeometry x="30" width="150" height="30" as="geometry">
            <mxRectangle width="150" height="30" as="alternateBounds" />
          </mxGeometry>
        </mxCell>
        <mxCell id="nY8UX26Kj-myHwL68--w-100" value="" style="fontSize=12;html=1;endArrow=ERmandOne;startArrow=ERzeroToMany;rounded=0;entryX=-0.011;entryY=0.84;entryDx=0;entryDy=0;exitX=1;exitY=0.5;exitDx=0;exitDy=0;startFill=0;entryPerimeter=0;edgeStyle=orthogonalEdgeStyle;" parent="1" source="G_9sbRUCT73YD4NC6Vph-32" target="nY8UX26Kj-myHwL68--w-42" edge="1">
          <mxGeometry width="100" height="100" relative="1" as="geometry">
            <mxPoint x="560" y="1460" as="sourcePoint" />
            <mxPoint x="630" y="1105" as="targetPoint" />
          </mxGeometry>
        </mxCell>
        <mxCell id="nY8UX26Kj-myHwL68--w-101" value="" style="edgeStyle=entityRelationEdgeStyle;fontSize=12;html=1;endArrow=ERmandOne;startArrow=ERoneToMany;rounded=0;exitX=1;exitY=0.5;exitDx=0;exitDy=0;entryX=-0.017;entryY=0.292;entryDx=0;entryDy=0;startFill=0;entryPerimeter=0;" parent="1" source="kXPxiJEo-uaLyjx1TCJ7-29" target="nY8UX26Kj-myHwL68--w-42" edge="1">
          <mxGeometry width="100" height="100" relative="1" as="geometry">
            <mxPoint x="520" y="960" as="sourcePoint" />
            <mxPoint x="620" y="860" as="targetPoint" />
          </mxGeometry>
        </mxCell>
        <mxCell id="nY8UX26Kj-myHwL68--w-102" value="" style="edgeStyle=entityRelationEdgeStyle;fontSize=12;html=1;endArrow=ERzeroToMany;startArrow=ERmandOne;rounded=0;exitX=1;exitY=0.5;exitDx=0;exitDy=0;entryX=0;entryY=0.5;entryDx=0;entryDy=0;" parent="1" target="nY8UX26Kj-myHwL68--w-16" edge="1">
          <mxGeometry width="100" height="100" relative="1" as="geometry">
            <mxPoint x="190" y="732.5" as="sourcePoint" />
            <mxPoint x="330" y="1030" as="targetPoint" />
          </mxGeometry>
        </mxCell>
        <mxCell id="nY8UX26Kj-myHwL68--w-104" value="0..*" style="text;strokeColor=none;align=center;fillColor=none;html=1;verticalAlign=middle;whiteSpace=wrap;rounded=0;" parent="1" vertex="1">
          <mxGeometry x="272" y="600" width="30" height="20" as="geometry" />
        </mxCell>
        <mxCell id="nY8UX26Kj-myHwL68--w-105" value="1..1" style="text;strokeColor=none;align=center;fillColor=none;html=1;verticalAlign=middle;whiteSpace=wrap;rounded=0;" parent="1" vertex="1">
          <mxGeometry x="190" y="737.5" width="30" height="15" as="geometry" />
        </mxCell>
        <mxCell id="nY8UX26Kj-myHwL68--w-106" value="1..*" style="text;strokeColor=none;align=center;fillColor=none;html=1;verticalAlign=middle;whiteSpace=wrap;rounded=0;" parent="1" vertex="1">
          <mxGeometry x="486" y="722.5" width="30" height="15" as="geometry" />
        </mxCell>
        <mxCell id="nY8UX26Kj-myHwL68--w-107" value="1..1" style="text;strokeColor=none;align=center;fillColor=none;html=1;verticalAlign=middle;whiteSpace=wrap;rounded=0;" parent="1" vertex="1">
          <mxGeometry x="600" y="827.5" width="30" height="15" as="geometry" />
        </mxCell>
        <mxCell id="nY8UX26Kj-myHwL68--w-109" value="0..*" style="text;strokeColor=none;align=center;fillColor=none;html=1;verticalAlign=middle;whiteSpace=wrap;rounded=0;" parent="1" vertex="1">
          <mxGeometry x="486.5" y="1120" width="30" height="15" as="geometry" />
        </mxCell>
        <mxCell id="nY8UX26Kj-myHwL68--w-110" value="1..1" style="text;strokeColor=none;align=center;fillColor=none;html=1;verticalAlign=middle;whiteSpace=wrap;rounded=0;" parent="1" vertex="1">
          <mxGeometry x="600" y="890" width="30" height="15" as="geometry" />
        </mxCell>
        <mxCell id="kXPxiJEo-uaLyjx1TCJ7-1" value="Document" style="shape=table;startSize=30;container=1;collapsible=1;childLayout=tableLayout;fixedRows=1;rowLines=0;fontStyle=1;align=center;resizeLast=1;html=1;fillColor=#fff2cc;strokeColor=#d6b656;" parent="1" vertex="1">
          <mxGeometry x="630" y="610" width="180" height="150" as="geometry" />
        </mxCell>
        <mxCell id="kXPxiJEo-uaLyjx1TCJ7-2" value="" style="shape=tableRow;horizontal=0;startSize=0;swimlaneHead=0;swimlaneBody=0;fillColor=none;collapsible=0;dropTarget=0;points=[[0,0.5],[1,0.5]];portConstraint=eastwest;top=0;left=0;right=0;bottom=1;" parent="kXPxiJEo-uaLyjx1TCJ7-1" vertex="1">
          <mxGeometry y="30" width="180" height="30" as="geometry" />
        </mxCell>
        <mxCell id="kXPxiJEo-uaLyjx1TCJ7-3" value="PK" style="shape=partialRectangle;connectable=0;fillColor=none;top=0;left=0;bottom=0;right=0;fontStyle=1;overflow=hidden;whiteSpace=wrap;html=1;" parent="kXPxiJEo-uaLyjx1TCJ7-2" vertex="1">
          <mxGeometry width="30" height="30" as="geometry">
            <mxRectangle width="30" height="30" as="alternateBounds" />
          </mxGeometry>
        </mxCell>
        <mxCell id="kXPxiJEo-uaLyjx1TCJ7-4" value="ID" style="shape=partialRectangle;connectable=0;fillColor=none;top=0;left=0;bottom=0;right=0;align=left;spacingLeft=6;fontStyle=5;overflow=hidden;whiteSpace=wrap;html=1;" parent="kXPxiJEo-uaLyjx1TCJ7-2" vertex="1">
          <mxGeometry x="30" width="150" height="30" as="geometry">
            <mxRectangle width="150" height="30" as="alternateBounds" />
          </mxGeometry>
        </mxCell>
        <mxCell id="3EvNorCOM8IKDYJuv2oa-11" value="" style="shape=tableRow;horizontal=0;startSize=0;swimlaneHead=0;swimlaneBody=0;fillColor=none;collapsible=0;dropTarget=0;points=[[0,0.5],[1,0.5]];portConstraint=eastwest;top=0;left=0;right=0;bottom=0;" parent="kXPxiJEo-uaLyjx1TCJ7-1" vertex="1">
          <mxGeometry y="60" width="180" height="30" as="geometry" />
        </mxCell>
        <mxCell id="3EvNorCOM8IKDYJuv2oa-12" value="FK" style="shape=partialRectangle;connectable=0;fillColor=none;top=0;left=0;bottom=0;right=0;editable=1;overflow=hidden;whiteSpace=wrap;html=1;" parent="3EvNorCOM8IKDYJuv2oa-11" vertex="1">
          <mxGeometry width="30" height="30" as="geometry">
            <mxRectangle width="30" height="30" as="alternateBounds" />
          </mxGeometry>
        </mxCell>
        <mxCell id="3EvNorCOM8IKDYJuv2oa-13" value="InternshipID" style="shape=partialRectangle;connectable=0;fillColor=none;top=0;left=0;bottom=0;right=0;align=left;spacingLeft=6;overflow=hidden;whiteSpace=wrap;html=1;" parent="3EvNorCOM8IKDYJuv2oa-11" vertex="1">
          <mxGeometry x="30" width="150" height="30" as="geometry">
            <mxRectangle width="150" height="30" as="alternateBounds" />
          </mxGeometry>
        </mxCell>
        <mxCell id="3EvNorCOM8IKDYJuv2oa-31" value="" style="shape=tableRow;horizontal=0;startSize=0;swimlaneHead=0;swimlaneBody=0;fillColor=none;collapsible=0;dropTarget=0;points=[[0,0.5],[1,0.5]];portConstraint=eastwest;top=0;left=0;right=0;bottom=0;" parent="kXPxiJEo-uaLyjx1TCJ7-1" vertex="1">
          <mxGeometry y="90" width="180" height="30" as="geometry" />
        </mxCell>
        <mxCell id="3EvNorCOM8IKDYJuv2oa-32" value="FK" style="shape=partialRectangle;connectable=0;fillColor=none;top=0;left=0;bottom=0;right=0;editable=1;overflow=hidden;whiteSpace=wrap;html=1;" parent="3EvNorCOM8IKDYJuv2oa-31" vertex="1">
          <mxGeometry width="30" height="30" as="geometry">
            <mxRectangle width="30" height="30" as="alternateBounds" />
          </mxGeometry>
        </mxCell>
        <mxCell id="3EvNorCOM8IKDYJuv2oa-33" value="DocumantTypeID" style="shape=partialRectangle;connectable=0;fillColor=none;top=0;left=0;bottom=0;right=0;align=left;spacingLeft=6;overflow=hidden;whiteSpace=wrap;html=1;" parent="3EvNorCOM8IKDYJuv2oa-31" vertex="1">
          <mxGeometry x="30" width="150" height="30" as="geometry">
            <mxRectangle width="150" height="30" as="alternateBounds" />
          </mxGeometry>
        </mxCell>
        <mxCell id="3EvNorCOM8IKDYJuv2oa-35" value="" style="shape=tableRow;horizontal=0;startSize=0;swimlaneHead=0;swimlaneBody=0;fillColor=none;collapsible=0;dropTarget=0;points=[[0,0.5],[1,0.5]];portConstraint=eastwest;top=0;left=0;right=0;bottom=0;" parent="kXPxiJEo-uaLyjx1TCJ7-1" vertex="1">
          <mxGeometry y="120" width="180" height="30" as="geometry" />
        </mxCell>
        <mxCell id="3EvNorCOM8IKDYJuv2oa-36" value="" style="shape=partialRectangle;connectable=0;fillColor=none;top=0;left=0;bottom=0;right=0;editable=1;overflow=hidden;" parent="3EvNorCOM8IKDYJuv2oa-35" vertex="1">
          <mxGeometry width="30" height="30" as="geometry">
            <mxRectangle width="30" height="30" as="alternateBounds" />
          </mxGeometry>
        </mxCell>
        <mxCell id="3EvNorCOM8IKDYJuv2oa-37" value="DocumantURL" style="shape=partialRectangle;connectable=0;fillColor=none;top=0;left=0;bottom=0;right=0;align=left;spacingLeft=6;overflow=hidden;" parent="3EvNorCOM8IKDYJuv2oa-35" vertex="1">
          <mxGeometry x="30" width="150" height="30" as="geometry">
            <mxRectangle width="150" height="30" as="alternateBounds" />
          </mxGeometry>
        </mxCell>
        <mxCell id="kXPxiJEo-uaLyjx1TCJ7-58" value="" style="edgeStyle=entityRelationEdgeStyle;fontSize=12;html=1;endArrow=ERzeroToMany;startArrow=ERmandOne;rounded=0;entryX=0;entryY=0.5;entryDx=0;entryDy=0;exitX=1;exitY=0.5;exitDx=0;exitDy=0;" parent="1" target="kXPxiJEo-uaLyjx1TCJ7-2" edge="1">
          <mxGeometry width="100" height="100" relative="1" as="geometry">
            <mxPoint x="486" y="655" as="sourcePoint" />
            <mxPoint x="324" y="575" as="targetPoint" />
          </mxGeometry>
        </mxCell>
        <mxCell id="kXPxiJEo-uaLyjx1TCJ7-59" value="1..1" style="text;strokeColor=none;align=center;fillColor=none;html=1;verticalAlign=middle;whiteSpace=wrap;rounded=0;" parent="1" vertex="1">
          <mxGeometry x="486" y="630" width="30" height="15" as="geometry" />
        </mxCell>
        <mxCell id="kXPxiJEo-uaLyjx1TCJ7-60" value="0..*" style="text;strokeColor=none;align=center;fillColor=none;html=1;verticalAlign=middle;whiteSpace=wrap;rounded=0;" parent="1" vertex="1">
          <mxGeometry x="600" y="630" width="30" height="20" as="geometry" />
        </mxCell>
        <mxCell id="kXPxiJEo-uaLyjx1TCJ7-61" value="Status" style="shape=table;startSize=30;container=1;collapsible=1;childLayout=tableLayout;fixedRows=1;rowLines=0;fontStyle=1;align=center;resizeLast=1;html=1;fillColor=#f8cecc;strokeColor=#b85450;" parent="1" vertex="1">
          <mxGeometry x="10" y="405" width="180" height="90" as="geometry" />
        </mxCell>
        <mxCell id="kXPxiJEo-uaLyjx1TCJ7-62" value="" style="shape=tableRow;horizontal=0;startSize=0;swimlaneHead=0;swimlaneBody=0;fillColor=none;collapsible=0;dropTarget=0;points=[[0,0.5],[1,0.5]];portConstraint=eastwest;top=0;left=0;right=0;bottom=1;" parent="kXPxiJEo-uaLyjx1TCJ7-61" vertex="1">
          <mxGeometry y="30" width="180" height="30" as="geometry" />
        </mxCell>
        <mxCell id="kXPxiJEo-uaLyjx1TCJ7-63" value="PK" style="shape=partialRectangle;connectable=0;fillColor=none;top=0;left=0;bottom=0;right=0;fontStyle=1;overflow=hidden;whiteSpace=wrap;html=1;" parent="kXPxiJEo-uaLyjx1TCJ7-62" vertex="1">
          <mxGeometry width="30" height="30" as="geometry">
            <mxRectangle width="30" height="30" as="alternateBounds" />
          </mxGeometry>
        </mxCell>
        <mxCell id="kXPxiJEo-uaLyjx1TCJ7-64" value="ID" style="shape=partialRectangle;connectable=0;fillColor=none;top=0;left=0;bottom=0;right=0;align=left;spacingLeft=6;fontStyle=5;overflow=hidden;whiteSpace=wrap;html=1;" parent="kXPxiJEo-uaLyjx1TCJ7-62" vertex="1">
          <mxGeometry x="30" width="150" height="30" as="geometry">
            <mxRectangle width="150" height="30" as="alternateBounds" />
          </mxGeometry>
        </mxCell>
        <mxCell id="kXPxiJEo-uaLyjx1TCJ7-65" value="" style="shape=tableRow;horizontal=0;startSize=0;swimlaneHead=0;swimlaneBody=0;fillColor=none;collapsible=0;dropTarget=0;points=[[0,0.5],[1,0.5]];portConstraint=eastwest;top=0;left=0;right=0;bottom=0;" parent="kXPxiJEo-uaLyjx1TCJ7-61" vertex="1">
          <mxGeometry y="60" width="180" height="30" as="geometry" />
        </mxCell>
        <mxCell id="kXPxiJEo-uaLyjx1TCJ7-66" value="" style="shape=partialRectangle;connectable=0;fillColor=none;top=0;left=0;bottom=0;right=0;editable=1;overflow=hidden;whiteSpace=wrap;html=1;" parent="kXPxiJEo-uaLyjx1TCJ7-65" vertex="1">
          <mxGeometry width="30" height="30" as="geometry">
            <mxRectangle width="30" height="30" as="alternateBounds" />
          </mxGeometry>
        </mxCell>
        <mxCell id="kXPxiJEo-uaLyjx1TCJ7-67" value="Status" style="shape=partialRectangle;connectable=0;fillColor=none;top=0;left=0;bottom=0;right=0;align=left;spacingLeft=6;overflow=hidden;whiteSpace=wrap;html=1;" parent="kXPxiJEo-uaLyjx1TCJ7-65" vertex="1">
          <mxGeometry x="30" width="150" height="30" as="geometry">
            <mxRectangle width="150" height="30" as="alternateBounds" />
          </mxGeometry>
        </mxCell>
        <mxCell id="kXPxiJEo-uaLyjx1TCJ7-74" value="" style="fontSize=12;html=1;endArrow=ERoneToMany;startArrow=ERoneToMany;rounded=0;exitX=0.5;exitY=0;exitDx=0;exitDy=0;entryX=0.519;entryY=1.133;entryDx=0;entryDy=0;entryPerimeter=0;startFill=0;endFill=0;" parent="1" source="nY8UX26Kj-myHwL68--w-15" target="WhrVaaGN8TkzlCc49Z0P-1" edge="1">
          <mxGeometry width="100" height="100" relative="1" as="geometry">
            <mxPoint x="590" y="420" as="sourcePoint" />
            <mxPoint x="220" y="480" as="targetPoint" />
          </mxGeometry>
        </mxCell>
        <mxCell id="kXPxiJEo-uaLyjx1TCJ7-75" value="1..*" style="text;strokeColor=none;align=center;fillColor=none;html=1;verticalAlign=middle;whiteSpace=wrap;rounded=0;" parent="1" vertex="1">
          <mxGeometry x="404" y="560" width="30" height="15" as="geometry" />
        </mxCell>
        <mxCell id="kXPxiJEo-uaLyjx1TCJ7-76" value="1..*" style="text;strokeColor=none;align=center;fillColor=none;html=1;verticalAlign=middle;whiteSpace=wrap;rounded=0;" parent="1" vertex="1">
          <mxGeometry x="200" y="425" width="30" height="15" as="geometry" />
        </mxCell>
        <mxCell id="y7atK1gFAvmojYOWR-XK-4" value="Departmant" style="shape=table;startSize=30;container=1;collapsible=1;childLayout=tableLayout;fixedRows=1;rowLines=0;fontStyle=1;align=center;resizeLast=1;html=1;fillColor=#6a00ff;strokeColor=#3700CC;fontColor=#ffffff;" parent="1" vertex="1">
          <mxGeometry x="10" y="960" width="180" height="90" as="geometry" />
        </mxCell>
        <mxCell id="y7atK1gFAvmojYOWR-XK-5" value="" style="shape=tableRow;horizontal=0;startSize=0;swimlaneHead=0;swimlaneBody=0;fillColor=none;collapsible=0;dropTarget=0;points=[[0,0.5],[1,0.5]];portConstraint=eastwest;top=0;left=0;right=0;bottom=1;" parent="y7atK1gFAvmojYOWR-XK-4" vertex="1">
          <mxGeometry y="30" width="180" height="30" as="geometry" />
        </mxCell>
        <mxCell id="y7atK1gFAvmojYOWR-XK-6" value="PK" style="shape=partialRectangle;connectable=0;fillColor=none;top=0;left=0;bottom=0;right=0;fontStyle=1;overflow=hidden;whiteSpace=wrap;html=1;" parent="y7atK1gFAvmojYOWR-XK-5" vertex="1">
          <mxGeometry width="30" height="30" as="geometry">
            <mxRectangle width="30" height="30" as="alternateBounds" />
          </mxGeometry>
        </mxCell>
        <mxCell id="y7atK1gFAvmojYOWR-XK-7" value="ID" style="shape=partialRectangle;connectable=0;fillColor=none;top=0;left=0;bottom=0;right=0;align=left;spacingLeft=6;fontStyle=5;overflow=hidden;whiteSpace=wrap;html=1;" parent="y7atK1gFAvmojYOWR-XK-5" vertex="1">
          <mxGeometry x="30" width="150" height="30" as="geometry">
            <mxRectangle width="150" height="30" as="alternateBounds" />
          </mxGeometry>
        </mxCell>
        <mxCell id="y7atK1gFAvmojYOWR-XK-8" value="" style="shape=tableRow;horizontal=0;startSize=0;swimlaneHead=0;swimlaneBody=0;fillColor=none;collapsible=0;dropTarget=0;points=[[0,0.5],[1,0.5]];portConstraint=eastwest;top=0;left=0;right=0;bottom=0;" parent="y7atK1gFAvmojYOWR-XK-4" vertex="1">
          <mxGeometry y="60" width="180" height="30" as="geometry" />
        </mxCell>
        <mxCell id="y7atK1gFAvmojYOWR-XK-9" value="" style="shape=partialRectangle;connectable=0;fillColor=none;top=0;left=0;bottom=0;right=0;editable=1;overflow=hidden;whiteSpace=wrap;html=1;" parent="y7atK1gFAvmojYOWR-XK-8" vertex="1">
          <mxGeometry width="30" height="30" as="geometry">
            <mxRectangle width="30" height="30" as="alternateBounds" />
          </mxGeometry>
        </mxCell>
        <mxCell id="y7atK1gFAvmojYOWR-XK-10" value="Name" style="shape=partialRectangle;connectable=0;fillColor=none;top=0;left=0;bottom=0;right=0;align=left;spacingLeft=6;overflow=hidden;whiteSpace=wrap;html=1;" parent="y7atK1gFAvmojYOWR-XK-8" vertex="1">
          <mxGeometry x="30" width="150" height="30" as="geometry">
            <mxRectangle width="150" height="30" as="alternateBounds" />
          </mxGeometry>
        </mxCell>
        <mxCell id="y7atK1gFAvmojYOWR-XK-35" value="" style="fontSize=12;html=1;endArrow=ERzeroToMany;startArrow=ERmandOne;rounded=0;exitX=0.5;exitY=0;exitDx=0;exitDy=0;entryX=0.5;entryY=1.083;entryDx=0;entryDy=0;entryPerimeter=0;" parent="1" source="y7atK1gFAvmojYOWR-XK-4" target="kLBQWd9NSN7YNl4u3WYE-1" edge="1">
          <mxGeometry width="100" height="100" relative="1" as="geometry">
            <mxPoint x="-70" y="870" as="sourcePoint" />
            <mxPoint x="120" y="1070" as="targetPoint" />
          </mxGeometry>
        </mxCell>
        <mxCell id="y7atK1gFAvmojYOWR-XK-36" value="1..1" style="text;strokeColor=none;align=center;fillColor=none;html=1;verticalAlign=middle;whiteSpace=wrap;rounded=0;" parent="1" vertex="1">
          <mxGeometry x="60" y="940" width="30" height="15" as="geometry" />
        </mxCell>
        <mxCell id="y7atK1gFAvmojYOWR-XK-37" value="0..*" style="text;strokeColor=none;align=center;fillColor=none;html=1;verticalAlign=middle;whiteSpace=wrap;rounded=0;" parent="1" vertex="1">
          <mxGeometry x="60" y="820" width="30" height="20" as="geometry" />
        </mxCell>
        <mxCell id="G_9sbRUCT73YD4NC6Vph-35" value="" style="fontSize=12;html=1;endArrow=ERmandOne;startArrow=ERmandOne;rounded=0;exitX=0.5;exitY=0;exitDx=0;exitDy=0;entryX=0.467;entryY=1;entryDx=0;entryDy=0;entryPerimeter=0;" parent="1" source="nY8UX26Kj-myHwL68--w-72" target="WhrVaaGN8TkzlCc49Z0P-31" edge="1">
          <mxGeometry width="100" height="100" relative="1" as="geometry">
            <mxPoint x="380" y="1025" as="sourcePoint" />
            <mxPoint x="393" y="890" as="targetPoint" />
          </mxGeometry>
        </mxCell>
        <mxCell id="G_9sbRUCT73YD4NC6Vph-36" value="1..1" style="text;strokeColor=none;align=center;fillColor=none;html=1;verticalAlign=middle;whiteSpace=wrap;rounded=0;" parent="1" vertex="1">
          <mxGeometry x="404" y="890" width="30" height="15" as="geometry" />
        </mxCell>
        <mxCell id="G_9sbRUCT73YD4NC6Vph-37" value="1..1" style="text;strokeColor=none;align=center;fillColor=none;html=1;verticalAlign=middle;whiteSpace=wrap;rounded=0;" parent="1" vertex="1">
          <mxGeometry x="400.5" y="960" width="30" height="15" as="geometry" />
        </mxCell>
        <mxCell id="3EvNorCOM8IKDYJuv2oa-1" value="InternshipStatus" style="shape=table;startSize=30;container=1;collapsible=1;childLayout=tableLayout;fixedRows=1;rowLines=0;fontStyle=1;align=center;resizeLast=1;html=1;fillColor=#f8cecc;strokeColor=#b85450;" parent="1" vertex="1">
          <mxGeometry x="302.5" y="345" width="180" height="150" as="geometry" />
        </mxCell>
        <mxCell id="3EvNorCOM8IKDYJuv2oa-2" value="" style="shape=tableRow;horizontal=0;startSize=0;swimlaneHead=0;swimlaneBody=0;fillColor=none;collapsible=0;dropTarget=0;points=[[0,0.5],[1,0.5]];portConstraint=eastwest;top=0;left=0;right=0;bottom=1;" parent="3EvNorCOM8IKDYJuv2oa-1" vertex="1">
          <mxGeometry y="30" width="180" height="30" as="geometry" />
        </mxCell>
        <mxCell id="3EvNorCOM8IKDYJuv2oa-3" value="PK" style="shape=partialRectangle;connectable=0;fillColor=none;top=0;left=0;bottom=0;right=0;fontStyle=1;overflow=hidden;whiteSpace=wrap;html=1;" parent="3EvNorCOM8IKDYJuv2oa-2" vertex="1">
          <mxGeometry width="30" height="30" as="geometry">
            <mxRectangle width="30" height="30" as="alternateBounds" />
          </mxGeometry>
        </mxCell>
        <mxCell id="3EvNorCOM8IKDYJuv2oa-4" value="ID" style="shape=partialRectangle;connectable=0;fillColor=none;top=0;left=0;bottom=0;right=0;align=left;spacingLeft=6;fontStyle=5;overflow=hidden;whiteSpace=wrap;html=1;" parent="3EvNorCOM8IKDYJuv2oa-2" vertex="1">
          <mxGeometry x="30" width="150" height="30" as="geometry">
            <mxRectangle width="150" height="30" as="alternateBounds" />
          </mxGeometry>
        </mxCell>
        <mxCell id="3EvNorCOM8IKDYJuv2oa-5" value="" style="shape=tableRow;horizontal=0;startSize=0;swimlaneHead=0;swimlaneBody=0;fillColor=none;collapsible=0;dropTarget=0;points=[[0,0.5],[1,0.5]];portConstraint=eastwest;top=0;left=0;right=0;bottom=0;" parent="3EvNorCOM8IKDYJuv2oa-1" vertex="1">
          <mxGeometry y="60" width="180" height="30" as="geometry" />
        </mxCell>
        <mxCell id="3EvNorCOM8IKDYJuv2oa-6" value="FK" style="shape=partialRectangle;connectable=0;fillColor=none;top=0;left=0;bottom=0;right=0;editable=1;overflow=hidden;whiteSpace=wrap;html=1;" parent="3EvNorCOM8IKDYJuv2oa-5" vertex="1">
          <mxGeometry width="30" height="30" as="geometry">
            <mxRectangle width="30" height="30" as="alternateBounds" />
          </mxGeometry>
        </mxCell>
        <mxCell id="3EvNorCOM8IKDYJuv2oa-7" value="InternshipID" style="shape=partialRectangle;connectable=0;fillColor=none;top=0;left=0;bottom=0;right=0;align=left;spacingLeft=6;overflow=hidden;whiteSpace=wrap;html=1;" parent="3EvNorCOM8IKDYJuv2oa-5" vertex="1">
          <mxGeometry x="30" width="150" height="30" as="geometry">
            <mxRectangle width="150" height="30" as="alternateBounds" />
          </mxGeometry>
        </mxCell>
        <mxCell id="3EvNorCOM8IKDYJuv2oa-8" value="" style="shape=tableRow;horizontal=0;startSize=0;swimlaneHead=0;swimlaneBody=0;fillColor=none;collapsible=0;dropTarget=0;points=[[0,0.5],[1,0.5]];portConstraint=eastwest;top=0;left=0;right=0;bottom=0;" parent="3EvNorCOM8IKDYJuv2oa-1" vertex="1">
          <mxGeometry y="90" width="180" height="30" as="geometry" />
        </mxCell>
        <mxCell id="3EvNorCOM8IKDYJuv2oa-9" value="FK" style="shape=partialRectangle;connectable=0;fillColor=none;top=0;left=0;bottom=0;right=0;editable=1;overflow=hidden;" parent="3EvNorCOM8IKDYJuv2oa-8" vertex="1">
          <mxGeometry width="30" height="30" as="geometry">
            <mxRectangle width="30" height="30" as="alternateBounds" />
          </mxGeometry>
        </mxCell>
        <mxCell id="3EvNorCOM8IKDYJuv2oa-10" value="StatusID" style="shape=partialRectangle;connectable=0;fillColor=none;top=0;left=0;bottom=0;right=0;align=left;spacingLeft=6;overflow=hidden;" parent="3EvNorCOM8IKDYJuv2oa-8" vertex="1">
          <mxGeometry x="30" width="150" height="30" as="geometry">
            <mxRectangle width="150" height="30" as="alternateBounds" />
          </mxGeometry>
        </mxCell>
        <mxCell id="WhrVaaGN8TkzlCc49Z0P-1" value="" style="shape=tableRow;horizontal=0;startSize=0;swimlaneHead=0;swimlaneBody=0;fillColor=none;collapsible=0;dropTarget=0;points=[[0,0.5],[1,0.5]];portConstraint=eastwest;top=0;left=0;right=0;bottom=0;" parent="3EvNorCOM8IKDYJuv2oa-1" vertex="1">
          <mxGeometry y="120" width="180" height="30" as="geometry" />
        </mxCell>
        <mxCell id="WhrVaaGN8TkzlCc49Z0P-2" value="" style="shape=partialRectangle;connectable=0;fillColor=none;top=0;left=0;bottom=0;right=0;editable=1;overflow=hidden;" parent="WhrVaaGN8TkzlCc49Z0P-1" vertex="1">
          <mxGeometry width="30" height="30" as="geometry">
            <mxRectangle width="30" height="30" as="alternateBounds" />
          </mxGeometry>
        </mxCell>
        <mxCell id="WhrVaaGN8TkzlCc49Z0P-3" value="Comment" style="shape=partialRectangle;connectable=0;fillColor=none;top=0;left=0;bottom=0;right=0;align=left;spacingLeft=6;overflow=hidden;" parent="WhrVaaGN8TkzlCc49Z0P-1" vertex="1">
          <mxGeometry x="30" width="150" height="30" as="geometry">
            <mxRectangle width="150" height="30" as="alternateBounds" />
          </mxGeometry>
        </mxCell>
        <mxCell id="3EvNorCOM8IKDYJuv2oa-14" value="" style="fontSize=12;html=1;endArrow=ERoneToMany;startArrow=ERoneToMany;rounded=0;startFill=0;endFill=0;exitX=1;exitY=0.5;exitDx=0;exitDy=0;entryX=0;entryY=0.5;entryDx=0;entryDy=0;" parent="1" source="kXPxiJEo-uaLyjx1TCJ7-62" target="3EvNorCOM8IKDYJuv2oa-8" edge="1">
          <mxGeometry width="100" height="100" relative="1" as="geometry">
            <mxPoint x="270" y="290" as="sourcePoint" />
            <mxPoint x="260" y="350" as="targetPoint" />
          </mxGeometry>
        </mxCell>
        <mxCell id="3EvNorCOM8IKDYJuv2oa-15" value="DocumentType" style="shape=table;startSize=30;container=1;collapsible=1;childLayout=tableLayout;fixedRows=1;rowLines=0;fontStyle=1;align=center;resizeLast=1;html=1;fillColor=#fff2cc;strokeColor=#d6b656;" parent="1" vertex="1">
          <mxGeometry x="630" y="380" width="180" height="120" as="geometry" />
        </mxCell>
        <mxCell id="3EvNorCOM8IKDYJuv2oa-16" value="" style="shape=tableRow;horizontal=0;startSize=0;swimlaneHead=0;swimlaneBody=0;fillColor=none;collapsible=0;dropTarget=0;points=[[0,0.5],[1,0.5]];portConstraint=eastwest;top=0;left=0;right=0;bottom=1;" parent="3EvNorCOM8IKDYJuv2oa-15" vertex="1">
          <mxGeometry y="30" width="180" height="30" as="geometry" />
        </mxCell>
        <mxCell id="3EvNorCOM8IKDYJuv2oa-17" value="PK" style="shape=partialRectangle;connectable=0;fillColor=none;top=0;left=0;bottom=0;right=0;fontStyle=1;overflow=hidden;whiteSpace=wrap;html=1;" parent="3EvNorCOM8IKDYJuv2oa-16" vertex="1">
          <mxGeometry width="30" height="30" as="geometry">
            <mxRectangle width="30" height="30" as="alternateBounds" />
          </mxGeometry>
        </mxCell>
        <mxCell id="3EvNorCOM8IKDYJuv2oa-18" value="ID" style="shape=partialRectangle;connectable=0;fillColor=none;top=0;left=0;bottom=0;right=0;align=left;spacingLeft=6;fontStyle=5;overflow=hidden;whiteSpace=wrap;html=1;" parent="3EvNorCOM8IKDYJuv2oa-16" vertex="1">
          <mxGeometry x="30" width="150" height="30" as="geometry">
            <mxRectangle width="150" height="30" as="alternateBounds" />
          </mxGeometry>
        </mxCell>
        <mxCell id="3EvNorCOM8IKDYJuv2oa-19" value="" style="shape=tableRow;horizontal=0;startSize=0;swimlaneHead=0;swimlaneBody=0;fillColor=none;collapsible=0;dropTarget=0;points=[[0,0.5],[1,0.5]];portConstraint=eastwest;top=0;left=0;right=0;bottom=0;" parent="3EvNorCOM8IKDYJuv2oa-15" vertex="1">
          <mxGeometry y="60" width="180" height="30" as="geometry" />
        </mxCell>
        <mxCell id="3EvNorCOM8IKDYJuv2oa-20" value="" style="shape=partialRectangle;connectable=0;fillColor=none;top=0;left=0;bottom=0;right=0;editable=1;overflow=hidden;whiteSpace=wrap;html=1;" parent="3EvNorCOM8IKDYJuv2oa-19" vertex="1">
          <mxGeometry width="30" height="30" as="geometry">
            <mxRectangle width="30" height="30" as="alternateBounds" />
          </mxGeometry>
        </mxCell>
        <mxCell id="3EvNorCOM8IKDYJuv2oa-21" value="Type" style="shape=partialRectangle;connectable=0;fillColor=none;top=0;left=0;bottom=0;right=0;align=left;spacingLeft=6;overflow=hidden;whiteSpace=wrap;html=1;" parent="3EvNorCOM8IKDYJuv2oa-19" vertex="1">
          <mxGeometry x="30" width="150" height="30" as="geometry">
            <mxRectangle width="150" height="30" as="alternateBounds" />
          </mxGeometry>
        </mxCell>
        <mxCell id="3EvNorCOM8IKDYJuv2oa-22" value="" style="shape=tableRow;horizontal=0;startSize=0;swimlaneHead=0;swimlaneBody=0;fillColor=none;collapsible=0;dropTarget=0;points=[[0,0.5],[1,0.5]];portConstraint=eastwest;top=0;left=0;right=0;bottom=0;" parent="3EvNorCOM8IKDYJuv2oa-15" vertex="1">
          <mxGeometry y="90" width="180" height="30" as="geometry" />
        </mxCell>
        <mxCell id="3EvNorCOM8IKDYJuv2oa-23" value="" style="shape=partialRectangle;connectable=0;fillColor=none;top=0;left=0;bottom=0;right=0;editable=1;overflow=hidden;" parent="3EvNorCOM8IKDYJuv2oa-22" vertex="1">
          <mxGeometry width="30" height="30" as="geometry">
            <mxRectangle width="30" height="30" as="alternateBounds" />
          </mxGeometry>
        </mxCell>
        <mxCell id="3EvNorCOM8IKDYJuv2oa-24" value="Document" style="shape=partialRectangle;connectable=0;fillColor=none;top=0;left=0;bottom=0;right=0;align=left;spacingLeft=6;overflow=hidden;" parent="3EvNorCOM8IKDYJuv2oa-22" vertex="1">
          <mxGeometry x="30" width="150" height="30" as="geometry">
            <mxRectangle width="150" height="30" as="alternateBounds" />
          </mxGeometry>
        </mxCell>
        <mxCell id="3EvNorCOM8IKDYJuv2oa-34" value="" style="fontSize=12;html=1;endArrow=ERoneToMany;startArrow=ERoneToMany;rounded=0;exitX=0.5;exitY=0;exitDx=0;exitDy=0;entryX=0.5;entryY=1.2;entryDx=0;entryDy=0;entryPerimeter=0;startFill=0;endFill=0;" parent="1" source="kXPxiJEo-uaLyjx1TCJ7-1" target="3EvNorCOM8IKDYJuv2oa-22" edge="1">
          <mxGeometry width="100" height="100" relative="1" as="geometry">
            <mxPoint x="720" y="600" as="sourcePoint" />
            <mxPoint x="720" y="540" as="targetPoint" />
          </mxGeometry>
        </mxCell>
        <mxCell id="3EvNorCOM8IKDYJuv2oa-126" value="1..*" style="text;strokeColor=none;align=center;fillColor=none;html=1;verticalAlign=middle;whiteSpace=wrap;rounded=0;" parent="1" vertex="1">
          <mxGeometry x="260" y="425" width="30" height="15" as="geometry" />
        </mxCell>
        <mxCell id="3EvNorCOM8IKDYJuv2oa-127" value="1..*" style="text;strokeColor=none;align=center;fillColor=none;html=1;verticalAlign=middle;whiteSpace=wrap;rounded=0;" parent="1" vertex="1">
          <mxGeometry x="404" y="510" width="30" height="15" as="geometry" />
        </mxCell>
        <mxCell id="3EvNorCOM8IKDYJuv2oa-128" value="1..*" style="text;strokeColor=none;align=center;fillColor=none;html=1;verticalAlign=middle;whiteSpace=wrap;rounded=0;" parent="1" vertex="1">
          <mxGeometry x="680" y="510" width="30" height="15" as="geometry" />
        </mxCell>
        <mxCell id="3EvNorCOM8IKDYJuv2oa-129" value="1..*" style="text;strokeColor=none;align=center;fillColor=none;html=1;verticalAlign=middle;whiteSpace=wrap;rounded=0;" parent="1" vertex="1">
          <mxGeometry x="680" y="582.5" width="30" height="15" as="geometry" />
        </mxCell>
        <mxCell id="WhrVaaGN8TkzlCc49Z0P-10" value="AuditableBaseEntity" style="shape=table;startSize=30;container=1;collapsible=1;childLayout=tableLayout;fixedRows=1;rowLines=0;fontStyle=1;align=center;resizeLast=1;html=1;fillColor=#f5f5f5;strokeColor=#666666;fontColor=#333333;" parent="1" vertex="1">
          <mxGeometry x="20" y="85" width="180" height="180" as="geometry" />
        </mxCell>
        <mxCell id="WhrVaaGN8TkzlCc49Z0P-11" value="" style="shape=tableRow;horizontal=0;startSize=0;swimlaneHead=0;swimlaneBody=0;fillColor=none;collapsible=0;dropTarget=0;points=[[0,0.5],[1,0.5]];portConstraint=eastwest;top=0;left=0;right=0;bottom=1;" parent="WhrVaaGN8TkzlCc49Z0P-10" vertex="1">
          <mxGeometry y="30" width="180" height="30" as="geometry" />
        </mxCell>
        <mxCell id="WhrVaaGN8TkzlCc49Z0P-12" value="PK" style="shape=partialRectangle;connectable=0;fillColor=none;top=0;left=0;bottom=0;right=0;fontStyle=1;overflow=hidden;whiteSpace=wrap;html=1;" parent="WhrVaaGN8TkzlCc49Z0P-11" vertex="1">
          <mxGeometry width="30" height="30" as="geometry">
            <mxRectangle width="30" height="30" as="alternateBounds" />
          </mxGeometry>
        </mxCell>
        <mxCell id="WhrVaaGN8TkzlCc49Z0P-13" value="ID" style="shape=partialRectangle;connectable=0;fillColor=none;top=0;left=0;bottom=0;right=0;align=left;spacingLeft=6;fontStyle=5;overflow=hidden;whiteSpace=wrap;html=1;" parent="WhrVaaGN8TkzlCc49Z0P-11" vertex="1">
          <mxGeometry x="30" width="150" height="30" as="geometry">
            <mxRectangle width="150" height="30" as="alternateBounds" />
          </mxGeometry>
        </mxCell>
        <mxCell id="WhrVaaGN8TkzlCc49Z0P-14" value="" style="shape=tableRow;horizontal=0;startSize=0;swimlaneHead=0;swimlaneBody=0;fillColor=none;collapsible=0;dropTarget=0;points=[[0,0.5],[1,0.5]];portConstraint=eastwest;top=0;left=0;right=0;bottom=0;" parent="WhrVaaGN8TkzlCc49Z0P-10" vertex="1">
          <mxGeometry y="60" width="180" height="30" as="geometry" />
        </mxCell>
        <mxCell id="WhrVaaGN8TkzlCc49Z0P-15" value="" style="shape=partialRectangle;connectable=0;fillColor=none;top=0;left=0;bottom=0;right=0;editable=1;overflow=hidden;whiteSpace=wrap;html=1;" parent="WhrVaaGN8TkzlCc49Z0P-14" vertex="1">
          <mxGeometry width="30" height="30" as="geometry">
            <mxRectangle width="30" height="30" as="alternateBounds" />
          </mxGeometry>
        </mxCell>
        <mxCell id="WhrVaaGN8TkzlCc49Z0P-16" value="CreatedBy" style="shape=partialRectangle;connectable=0;fillColor=none;top=0;left=0;bottom=0;right=0;align=left;spacingLeft=6;overflow=hidden;whiteSpace=wrap;html=1;" parent="WhrVaaGN8TkzlCc49Z0P-14" vertex="1">
          <mxGeometry x="30" width="150" height="30" as="geometry">
            <mxRectangle width="150" height="30" as="alternateBounds" />
          </mxGeometry>
        </mxCell>
        <mxCell id="WhrVaaGN8TkzlCc49Z0P-17" value="" style="shape=tableRow;horizontal=0;startSize=0;swimlaneHead=0;swimlaneBody=0;fillColor=none;collapsible=0;dropTarget=0;points=[[0,0.5],[1,0.5]];portConstraint=eastwest;top=0;left=0;right=0;bottom=0;" parent="WhrVaaGN8TkzlCc49Z0P-10" vertex="1">
          <mxGeometry y="90" width="180" height="30" as="geometry" />
        </mxCell>
        <mxCell id="WhrVaaGN8TkzlCc49Z0P-18" value="" style="shape=partialRectangle;connectable=0;fillColor=none;top=0;left=0;bottom=0;right=0;editable=1;overflow=hidden;" parent="WhrVaaGN8TkzlCc49Z0P-17" vertex="1">
          <mxGeometry width="30" height="30" as="geometry">
            <mxRectangle width="30" height="30" as="alternateBounds" />
          </mxGeometry>
        </mxCell>
        <mxCell id="WhrVaaGN8TkzlCc49Z0P-19" value="CreatedDate" style="shape=partialRectangle;connectable=0;fillColor=none;top=0;left=0;bottom=0;right=0;align=left;spacingLeft=6;overflow=hidden;" parent="WhrVaaGN8TkzlCc49Z0P-17" vertex="1">
          <mxGeometry x="30" width="150" height="30" as="geometry">
            <mxRectangle width="150" height="30" as="alternateBounds" />
          </mxGeometry>
        </mxCell>
        <mxCell id="WhrVaaGN8TkzlCc49Z0P-20" value="" style="shape=tableRow;horizontal=0;startSize=0;swimlaneHead=0;swimlaneBody=0;fillColor=none;collapsible=0;dropTarget=0;points=[[0,0.5],[1,0.5]];portConstraint=eastwest;top=0;left=0;right=0;bottom=0;" parent="WhrVaaGN8TkzlCc49Z0P-10" vertex="1">
          <mxGeometry y="120" width="180" height="30" as="geometry" />
        </mxCell>
        <mxCell id="WhrVaaGN8TkzlCc49Z0P-21" value="" style="shape=partialRectangle;connectable=0;fillColor=none;top=0;left=0;bottom=0;right=0;editable=1;overflow=hidden;" parent="WhrVaaGN8TkzlCc49Z0P-20" vertex="1">
          <mxGeometry width="30" height="30" as="geometry">
            <mxRectangle width="30" height="30" as="alternateBounds" />
          </mxGeometry>
        </mxCell>
        <mxCell id="WhrVaaGN8TkzlCc49Z0P-22" value="LastModifiedBy" style="shape=partialRectangle;connectable=0;fillColor=none;top=0;left=0;bottom=0;right=0;align=left;spacingLeft=6;overflow=hidden;" parent="WhrVaaGN8TkzlCc49Z0P-20" vertex="1">
          <mxGeometry x="30" width="150" height="30" as="geometry">
            <mxRectangle width="150" height="30" as="alternateBounds" />
          </mxGeometry>
        </mxCell>
        <mxCell id="WhrVaaGN8TkzlCc49Z0P-23" value="" style="shape=tableRow;horizontal=0;startSize=0;swimlaneHead=0;swimlaneBody=0;fillColor=none;collapsible=0;dropTarget=0;points=[[0,0.5],[1,0.5]];portConstraint=eastwest;top=0;left=0;right=0;bottom=0;" parent="WhrVaaGN8TkzlCc49Z0P-10" vertex="1">
          <mxGeometry y="150" width="180" height="30" as="geometry" />
        </mxCell>
        <mxCell id="WhrVaaGN8TkzlCc49Z0P-24" value="" style="shape=partialRectangle;connectable=0;fillColor=none;top=0;left=0;bottom=0;right=0;editable=1;overflow=hidden;" parent="WhrVaaGN8TkzlCc49Z0P-23" vertex="1">
          <mxGeometry width="30" height="30" as="geometry">
            <mxRectangle width="30" height="30" as="alternateBounds" />
          </mxGeometry>
        </mxCell>
        <mxCell id="WhrVaaGN8TkzlCc49Z0P-25" value="LastModifiedDate" style="shape=partialRectangle;connectable=0;fillColor=none;top=0;left=0;bottom=0;right=0;align=left;spacingLeft=6;overflow=hidden;" parent="WhrVaaGN8TkzlCc49Z0P-23" vertex="1">
          <mxGeometry x="30" width="150" height="30" as="geometry">
            <mxRectangle width="150" height="30" as="alternateBounds" />
          </mxGeometry>
        </mxCell>
        <mxCell id="WhrVaaGN8TkzlCc49Z0P-26" value="" style="rounded=1;whiteSpace=wrap;html=1;dashed=1;fillColor=none;" parent="1" vertex="1">
          <mxGeometry y="60" width="470" height="230" as="geometry" />
        </mxCell>
        <mxCell id="WhrVaaGN8TkzlCc49Z0P-27" value="&lt;font style=&quot;font-size: 18px;&quot;&gt;Every entity extends from this class&lt;/font&gt;" style="text;html=1;align=center;verticalAlign=middle;whiteSpace=wrap;rounded=0;" parent="1" vertex="1">
          <mxGeometry x="220" y="125" width="220" height="110" as="geometry" />
        </mxCell>
      </root>
    </mxGraphModel>
  </diagram>
  <diagram id="97PYczHvCKk5RN00HlC0" name="server-side-client-side">
    <mxGraphModel dx="1434" dy="836" grid="1" gridSize="10" guides="1" tooltips="1" connect="1" arrows="1" fold="1" page="1" pageScale="1" pageWidth="827" pageHeight="1169" math="0" shadow="0">
      <root>
        <mxCell id="0" />
        <mxCell id="1" parent="0" />
        <mxCell id="eoP_nE0BakVKkFN4saHy-3" value="" style="endArrow=classic;html=1;rounded=0;" parent="1" edge="1">
          <mxGeometry width="50" height="50" relative="1" as="geometry">
            <mxPoint x="160" y="585" as="sourcePoint" />
            <mxPoint x="240" y="585" as="targetPoint" />
          </mxGeometry>
        </mxCell>
        <mxCell id="eoP_nE0BakVKkFN4saHy-5" value="" style="shape=image;verticalLabelPosition=bottom;labelBackgroundColor=default;verticalAlign=top;aspect=fixed;imageAspect=0;image=data:image/png,UklGRkYQAABXRUJQVlA4TDkQAAAv/8THEKegoG0bxmMw/mQ/CIJsm87g/rInyLbpDO4ve0WRJDWXfnfACMK/FgTEZ0JyA7yohY0Z9QGoHwAAQCA5bNu2ESTuP3Zyd19+GRET0O6/TTWq0KRHa9cYfamjy49y1ehrLNP6Xbej7xjO5QP7XfmiTTsKKrjZ/bd5u20nq21t20BQjuNABD34/z927+M4hpIQkn68RfSfFm3bcdtmw5mTm6HPJABzALX6BbeNJEnSqx7Of5fnMqNypIjoPyVHkhxJkj5AhifrrUiPZQf3H3/t//7T//Q//U//0//0P/1P/9P/9D/9T//T//Q//U//0//0P/1P/9P/9D/9T//T//Q//U//0//0P/1P/9P/9D/9T//T//Q//U//0//0P/1P/9P/9D/9T//T//Q//U//0//0P/1P/9P/9D/9T//T//Q//U//0//0P/1P/9P/9D/9T//T//Q//U//0//0P/1P/9P/9D/9T+M6VWtrkfviWqSx976WkjwrXdvGvyMvrlU16MW8XOlSlWTdT+LpUKEf5uXaSkryIN3O4EIP5uWfdZRk6HRujwyPty4XBCrJvhPIExwy9GYnMw5Xm2eq8QECNvRiKvMFrCIBHXqykjm7bGkNCfjQo6FMGBBXkIAQz2ZdLjyUJbmABITozZvJqgN863R2hxG9mJc7KUtS9oTsUKIn83JV8pJMnc7lcKJH8/K33CUZSecMkOLZbGTJARttgq0FACYyb4DYCVjRLxOZNuCSOgEteraQeQOyzAl40XcDKQZ2iRMQ4wn20QwEgRPsLQQwlbr3kHhxEzCjX+blsqwleZHOk6JGz5YBcCyTtJCKM7kYwDBY72X7nxEgxxNsgxXo/pyMzQUBZkFwPXd7IROiw45ezQLhF6jKmJAcevTTKhiOaaeMCfjRD6OAuKc9JExAkCfYBQIgYAKC9NubBSdQvUYshvRqXi5xL8nmdwSgSD8tgnWOg+J3ROFIP4yCEeheHxtJnmAPKGtaCZaAJP3x1uUiaUkKlRAclvRmEhhAkynhcGjSi0VwAEWmBDzph0GQAAIlOETpwR5AgB7ESfCY8nhz4AQqZ0QHgPuBffBWTOD2yXqje8AeITjXz9h/3BK5trAm9wNxLCd1Ow4oi/wIYZVhJQSK0g9rgLnYk6QLjCw9GgnKUNKV+yPBlmczCYwD3iZGArb05g2AbKEDIRLQpZdl0WGADJcBw5eeVkWHAUmCx6pBmB4XxRIBkfQOERjzbGsyIzD9JRCBIB1YkvcAeNoElOllSXYE5k7AmZ60D+5lbzPfAg9p+m4c7UNJz5sAGo1uitsmMIZRmDYBNPZGF7AcWwKTJqBGpNvVX+bRvTGbORNwg3CqJ6/GlkBuFJDDJbqAxVgT6NsGBHJQDneesBYvAAi0CeDhCQOWYk+gbAR+9HCEAUuxJ9C1BRLsID7T/rQKiKGkm7bABB7UI6zDTDr/SsAeAUFoA9ZhUqBGABHX6E73NAmOoaRLBPigv9pwNQuGjdl0CBhCHbAKowINfwsUQIQ8YBFWBfL/VgiiCH3AGswKxAsowiBgCXYH/E2aACP0AW0JdgWy/xZoYQiTMVBZgV2B3+S/BW5AwiJgAZYFcgUUYdMPCLaAM5R07N8CSxRhMw/0eFPgGUo69G//Haz4myzAHFg2ZpMpYAmXgOVYeBiFQpoAJmwChLcukCegCZ8A2c0LxE34iyaMAkS3N+Af0gQ4CQK85PYFPKuX/x1PkgDJDQxwSoCTrGfiSXADA4nPY9WgSdwn7aM58Zou5PJYNSjjLrqPCRoTtw8XM3msGowhXoyCKfE7XJDF8towJQ2Q2sgAhwSkcTtdgHk58oBEmoAqeYDMhgYiaQKs5AFBZDsDG20CrCQCEtsZoE3AlUDgktjOAGkCsCQCWWAzA6QJyBIJ7PJaGSBNwBoei1GwIJZTMqRLTICWVEBaIwOkCaBDvChp83LnTE6HPJQPZmNers70yjABD+2JUod5+XsWt4eXYEBUqwHTJMBLLnB763LHLAn4EgxU83LnHAkAkwyc5uXqDAkIkw2Yl7/5J0BMOCCm5QD2CTDkCAOmJXnLmgg4HBB5ugDzcpl3AgJxeDAb83IXX5eDHlYLcjMv3/i+xoUQ07HacFAXiQPYJsBMPvB463I719c2CWcKgKYxAwDZAU0DUMzLXRwTkKYDMC/f+CVATQmgLsQAuwSoaQGsy+3cEoAoaGM25uUSrwQEShzIzbxc4ZSANjVAMi/f+CRATddqw9G63PawScCirI3ZbNblIg/R4U0T4BXlcCA5wKkCFOVuoDjE6QLMyzf6BMgpA9TkauDZHOS0AdblInUCECUP5GZdLtEmgE4bcCnJ0UCBo9ihpA2K0zMFo1HuUNLm5SkDdkAK3ZiNdty+MZsAOZWAKfF7TTkQpxJQkMOBC3E6Af24HMiAUwqox+0A3rQC2nE8ADe1gHJcD6BNK1CV43oAhuKHktaLBYaSPlEofyhptZhgKOkDhAqGkjYe7q8pNA6lb8xGMe4Hbg9D6RuzUYoRNmZTkaYb0IsJAKApB9RiAwBn2gED2hgHwEw58HgBZGlalPcM44NxAMq0A23pz921jCvMBL4BCINwr1uMp/zD2IFtQEGfnqGkTScNGTv4RhkAPkVDSetZ8K9v4bso6YBVjjBA2TKfNR9sFyX9eKzydAGGMXBAHdg+mE2Dn5qN2RhNGdlBvCgDAAYCULXAzxqxD8AXCkDHUn9tJwiAFwpgm5j+EmYIQBcMwNsDwUA68g3w4MIBGMv1cuzANwBcOIBkKpmkg+hJF+QGOoVDSdsC0SRi4bso6Yg5jUNJm0l4qDqIkXRF5rBTtzEbI/GNrpITaQDq1G3Mxkguyg5ioQwAFhhgSopLmC4AV2CAfUZ6S5gwAFZogDAhvSXMGIAqPMB81JYwZwCo4ACXcdRBYwe+C3IDFR4ga1DD4+RZAzKmEAHKw3AqvfgG7FjTPJS07kA8SsmMFyUNNdVDSRuFv/l0EA/SAEBhAuaisYTJA/CI6dWGT5M4eXUQSQPwiOnVhg+DOJh1ED1pAJxgARPZS5AgAGbqh5LWt8euEyUIuD2YYAFV3556TihDQAUTMEDbnjpGShFwYgkZoGuh98h/ucBhNzHlWmvr/f4j6cxxEw3BUNJmECg7iMGAFdSx/zbxbK8mkcvuZ8cG6Fny9WEwYC7beX/YiZYomPqN2ehZ7/PBkzLAWEL5XEVRJAxDSWtZ82fkKmWApfgypEY3oQBszEbHgtdISN+YjZ3sg0adzyELkoHcNCz/ayPBG7MxCOotThEJwsZs9Kt+jdSDdEFu9kC+vWleIAgbs9Gv/DXyk4FmD/SF2+YECLA3r5ANFHNgUFNlSoSA4iUWCemANXAYU6QZIQJqFzmdFxI8lLRxxPdlWevz/ub6E2IEeBtXaABs49WAouX4T6XiY361HaqSYBlKmrWZhdyN2djCgN1p2QacjxIFwTKUtFaRzMh2UQaYwucvW3i1ibh/15EQgAZy42xnIXhjNnYRXtTjoIrzVZFezUSNCtgnyPep8xogmsX5Znc85u1gCWVjNorTdxhsPNBbRRt2iMD285t1gQLqlD8fahXgjWLggfjl1y+uCxRQnNIvg5QBNhFeDKeHfVEXKaAwnZeAs3Z2TSKOPEL+nhsqwNSqQh9gIB//+HNDBQJPowqNgIU+G9fqggVY2lToBMzjEBbXQG4s7S3kbszGPKpcYIHM0ZLC9J1ec9h+b+TkRTWUtMIALQHDeFHS5jju8Pl9nxhdcJUugJ8dhSDBxQ6t4XpRFxJj2piNwtAuAZ1IA9Tv+xAme5EAAwpT9gqQbuAyBv9qaJC9QIgBhal4BRzGgq/GuO5gebmD3r00kAFm1hT6AeUbdnhxzVEUzAAvYwoEgO7vOzJ0CrnmKALsx/y3Z2VLgQFQveFTyO3cvWjIh5KOfXHth0uAAFSPpH5a2uQCN5S0QpUJb/3Gd1HSmkdVzi15odANJa0wQCOgMl6UtOIRTqGUTSxoG7PRF9wRoANpgC240EZ9RSB8Q0mvHNFVHs6VsC04lwZVdZ4WOLByhzzl4/tgNtbgfB6zbWlhUuTAwiEd4XAAvfvwlaONWXrvnNCBdUO6w+UBlO7r+PK8R5TLdPCXOg7LRvQVDiJA5wacUJmu5/ObGDgHcls1oKs7JkDlBu1Lv/7QPiF2oK0az9M9KEDthv3Q/eEKHvOBB8qi4RzZqICidSN/6O0/+yUIyqGk1+yAFQ5mWZS0wo2vqfRurxrlgDmU9JLxr3A1z6KkbWLAwlOv6RwArBj+CqczLUraQJyLL7Y3mygYN2azYlescD/Fg9kYw7inMkyLxGlrWRbs3NX9KmWAtnE57PiazQVAWi+U1Z35AGXjcuTrPZsTgLhcJG/3IAR0jc3MymxuALbVAnm7GyNgInFuRwB+sTgESMArXRx7iP42tysAhbk43NkIEzCB9rkPIBTaoaSXC3bCyfqB3NTmqP+6HSPOikxf3vW9ZN+4A1CWncUVrUCBqDV5RPf903/fsR//T6rgCANWCvsg1jyUtArVEdeFDF/Wkn9/3dTogicMWKirb2IzaYAGdT/6eJnrZ72O3KNWUcBuzGa5Dt7hzEUZoCCb/745PN64P20vj9/TNQMPNjlncwmQ1wnhAo4XWCyq61+1n1vW7fsRnKkPXXb0E8ZV0z6bU4B9mQge4BEDmhGf13e+/Plf+fpcBeHzsnvfBsTftfS42dwChFUCOHgxA3pxfOgclt+zF/5b/bYBNVLf1O32pot1TucaYJH6b16pAa3Ynl+D629bzhY/LSbhRbeyfV9llj/ezSRv0zkGuBap/gMc1MClFfVTcd3vXjaJzbkt/sM9hD8cWfNt9HfXnHNMOV/t9c28pnMOsEb1H+DFBrJObP1n82Tv/AeXGr/9fO4BlONgMXEHDuwqsX8s6jZQZbOPjG4tKm8Qn7BCuAv4kQwlrRH5Rf+RqE4fz6XMDycN6I3ZLND1Czgn0gB1ccfIPRqPt+LEAD+Q2wKdv3hVoQzQ0TdI3g4u247DTeki4Fyf6he48QP6+SnPi3d+6vkMP/If99ndutQdKP62PPcvXr+RBugn6NXL5km9Xso0rEgu7yZ1EvD35Sl+edENgDqE5/se1l/U/yLbmHmSOzqnEf4m0pend4jJG4Dbj/O5u7e7uUq9XvLt/Fz0ldNw4P//B7aBc4cVadpf01+iuK3gt0uudA1qiN20hP+xRcLQWuN01OengfX9oVMeXm4577wN3Lp/WW1gOzf3Hz7N5/tfXnfrw3fk+vzrH7vS8CmMmK/7Re55bO4/g1qM40a1KR8xRtK+dv7Hdvw57v2Pv/Z//+l/+p/+93//6X/6n/6n/+l/+p/+p//pf/qf/qf/6X/6n/6n/+l/+p/+p//pf/qf/qf/6X/6n/6n/+l/+p/+p//pf/qf/qf/6X/6n/6n/+l/+p/+p//pf/qf/qf/6X/6n/6n/+l/+p/+p//pf/qf/qf/6X/6n/6n/+l/+p/+p//pf/qf/qf/6X/6n/6n/+l/+p/+9x5yAA==;imageBorder=default;perimeterSpacing=0;" parent="1" vertex="1">
          <mxGeometry x="20" y="545" width="128" height="80" as="geometry" />
        </mxCell>
        <mxCell id="eoP_nE0BakVKkFN4saHy-7" value="" style="image;html=1;image=img/lib/clip_art/computers/Server_Rack_128x128.png" parent="1" vertex="1">
          <mxGeometry x="245" y="565" width="80" height="80" as="geometry" />
        </mxCell>
        <mxCell id="eoP_nE0BakVKkFN4saHy-8" value="&lt;font face=&quot;Verdana&quot; size=&quot;1&quot;&gt;&lt;b style=&quot;font-size: 16px;&quot;&gt;SERVER&lt;/b&gt;&lt;/font&gt;" style="text;html=1;strokeColor=none;fillColor=none;align=center;verticalAlign=middle;whiteSpace=wrap;rounded=0;fontFamily=Tahoma;" parent="1" vertex="1">
          <mxGeometry x="240" y="525" width="90" height="30" as="geometry" />
        </mxCell>
        <mxCell id="eoP_nE0BakVKkFN4saHy-9" value="" style="endArrow=classic;html=1;rounded=0;exitX=1;exitY=0.5;exitDx=0;exitDy=0;" parent="1" source="eoP_nE0BakVKkFN4saHy-7" edge="1">
          <mxGeometry width="50" height="50" relative="1" as="geometry">
            <mxPoint x="340" y="620" as="sourcePoint" />
            <mxPoint x="400" y="720" as="targetPoint" />
          </mxGeometry>
        </mxCell>
        <mxCell id="eoP_nE0BakVKkFN4saHy-10" value="&lt;font style=&quot;font-size: 16px;&quot;&gt;&lt;b&gt;Server-side component&lt;/b&gt;&lt;/font&gt;" style="ellipse;whiteSpace=wrap;html=1;" parent="1" vertex="1">
          <mxGeometry x="400" y="720" width="160" height="110" as="geometry" />
        </mxCell>
        <mxCell id="eoP_nE0BakVKkFN4saHy-11" value="" style="endArrow=classic;html=1;rounded=0;exitX=1;exitY=0.5;exitDx=0;exitDy=0;" parent="1" source="eoP_nE0BakVKkFN4saHy-7" edge="1">
          <mxGeometry width="50" height="50" relative="1" as="geometry">
            <mxPoint x="270" y="450" as="sourcePoint" />
            <mxPoint x="400" y="480" as="targetPoint" />
          </mxGeometry>
        </mxCell>
        <mxCell id="eoP_nE0BakVKkFN4saHy-12" value="&lt;font style=&quot;font-size: 16px;&quot;&gt;&lt;b&gt;Client-side component&lt;/b&gt;&lt;/font&gt;" style="ellipse;whiteSpace=wrap;html=1;" parent="1" vertex="1">
          <mxGeometry x="400" y="364.8" width="160" height="110" as="geometry" />
        </mxCell>
        <mxCell id="eoP_nE0BakVKkFN4saHy-14" value="" style="endArrow=classic;html=1;rounded=0;" parent="1" edge="1">
          <mxGeometry width="50" height="50" relative="1" as="geometry">
            <mxPoint x="570" y="419.5" as="sourcePoint" />
            <mxPoint x="650" y="419.5" as="targetPoint" />
          </mxGeometry>
        </mxCell>
        <mxCell id="eoP_nE0BakVKkFN4saHy-15" value="" style="image;points=[];aspect=fixed;html=1;align=center;shadow=0;dashed=0;image=img/lib/allied_telesis/computer_and_terminals/Personal_Computer_with_Server.svg;" parent="1" vertex="1">
          <mxGeometry x="680" y="388.8" width="62.400000000000006" height="62.400000000000006" as="geometry" />
        </mxCell>
        <mxCell id="eoP_nE0BakVKkFN4saHy-18" value="" style="endArrow=classic;html=1;rounded=0;" parent="1" edge="1">
          <mxGeometry width="50" height="50" relative="1" as="geometry">
            <mxPoint x="570" y="774.5" as="sourcePoint" />
            <mxPoint x="650" y="774.5" as="targetPoint" />
          </mxGeometry>
        </mxCell>
        <mxCell id="eoP_nE0BakVKkFN4saHy-19" value="" style="image;points=[];aspect=fixed;html=1;align=center;shadow=0;dashed=0;image=img/lib/allied_telesis/computer_and_terminals/Personal_Computer_with_Server.svg;" parent="1" vertex="1">
          <mxGeometry x="680" y="743.8" width="62.400000000000006" height="62.400000000000006" as="geometry" />
        </mxCell>
        <mxCell id="eoP_nE0BakVKkFN4saHy-20" value="" style="endArrow=classic;html=1;rounded=0;" parent="1" edge="1">
          <mxGeometry width="50" height="50" relative="1" as="geometry">
            <mxPoint x="760" y="419.5" as="sourcePoint" />
            <mxPoint x="840" y="419.5" as="targetPoint" />
          </mxGeometry>
        </mxCell>
        <mxCell id="eoP_nE0BakVKkFN4saHy-21" value="" style="sketch=0;html=1;aspect=fixed;strokeColor=none;shadow=0;fillColor=#3B8DF1;verticalAlign=top;labelPosition=center;verticalLabelPosition=bottom;shape=mxgraph.gcp2.lifecycle" parent="1" vertex="1">
          <mxGeometry x="870" y="340" width="100" height="100" as="geometry" />
        </mxCell>
        <mxCell id="eoP_nE0BakVKkFN4saHy-22" value="&lt;font color=&quot;#007fff&quot; size=&quot;1&quot; style=&quot;&quot;&gt;&lt;b style=&quot;font-size: 12px;&quot;&gt;Paketleri Ayrıştırma İşlemi&lt;/b&gt;&lt;/font&gt;" style="text;html=1;strokeColor=none;fillColor=none;align=center;verticalAlign=middle;whiteSpace=wrap;rounded=0;" parent="1" vertex="1">
          <mxGeometry x="865" y="430" width="110" height="70" as="geometry" />
        </mxCell>
        <mxCell id="eoP_nE0BakVKkFN4saHy-23" value="" style="endArrow=classic;html=1;rounded=0;" parent="1" edge="1">
          <mxGeometry width="50" height="50" relative="1" as="geometry">
            <mxPoint x="990" y="419.3" as="sourcePoint" />
            <mxPoint x="1070" y="419.3" as="targetPoint" />
          </mxGeometry>
        </mxCell>
        <mxCell id="eoP_nE0BakVKkFN4saHy-24" value="Son Kullanıcı" style="shape=umlActor;verticalLabelPosition=bottom;verticalAlign=top;html=1;outlineConnect=0;" parent="1" vertex="1">
          <mxGeometry x="1100" y="389.8" width="30" height="60" as="geometry" />
        </mxCell>
        <mxCell id="eoP_nE0BakVKkFN4saHy-25" value="" style="endArrow=classic;html=1;rounded=0;" parent="1" edge="1">
          <mxGeometry width="50" height="50" relative="1" as="geometry">
            <mxPoint x="760" y="774.5" as="sourcePoint" />
            <mxPoint x="840" y="774.5" as="targetPoint" />
          </mxGeometry>
        </mxCell>
        <mxCell id="eoP_nE0BakVKkFN4saHy-26" value="Son Kullanıcı" style="shape=umlActor;verticalLabelPosition=bottom;verticalAlign=top;html=1;outlineConnect=0;" parent="1" vertex="1">
          <mxGeometry x="870" y="745" width="30" height="60" as="geometry" />
        </mxCell>
      </root>
    </mxGraphModel>
  </diagram>
  <diagram id="1keQuyj6baTC_-xYSPlF" name="authentication-flow">
    <mxGraphModel dx="1886" dy="892" grid="1" gridSize="10" guides="1" tooltips="1" connect="1" arrows="1" fold="1" page="1" pageScale="1" pageWidth="827" pageHeight="1169" math="0" shadow="0">
      <root>
        <mxCell id="0" />
        <mxCell id="1" parent="0" />
        <mxCell id="otJLdj2KDgQP4S8bH3IS-18" value="User" style="shape=umlActor;verticalLabelPosition=bottom;verticalAlign=top;html=1;outlineConnect=0;" vertex="1" parent="1">
          <mxGeometry x="77" y="528.75" width="30" height="60" as="geometry" />
        </mxCell>
        <mxCell id="otJLdj2KDgQP4S8bH3IS-19" value="" style="endArrow=classic;html=1;rounded=0;entryX=0;entryY=0.5;entryDx=0;entryDy=0;" edge="1" parent="1" source="otJLdj2KDgQP4S8bH3IS-18" target="otJLdj2KDgQP4S8bH3IS-21">
          <mxGeometry width="50" height="50" relative="1" as="geometry">
            <mxPoint x="194" y="578.75" as="sourcePoint" />
            <mxPoint x="247" y="558.75" as="targetPoint" />
          </mxGeometry>
        </mxCell>
        <mxCell id="otJLdj2KDgQP4S8bH3IS-20" value="Login Credentials" style="text;html=1;align=center;verticalAlign=middle;whiteSpace=wrap;rounded=0;" vertex="1" parent="1">
          <mxGeometry x="137" y="558.75" width="100" height="30" as="geometry" />
        </mxCell>
        <mxCell id="otJLdj2KDgQP4S8bH3IS-21" value="" style="shape=image;verticalLabelPosition=bottom;labelBackgroundColor=default;verticalAlign=top;aspect=fixed;imageAspect=0;image=data:image/png,iVBORw0KGgoAAAANSUhEUgAAAoAAAAGRCAMAAADCcfKyAAAAilBMVEX////y9/rl7vbZ5vHM3u2/1uiyzeSlxd+ZvdqMtNZ/rNFypM1lnMhZk8NMi78/g7oze7Yze7ZAg7tNjL9XksNZlMRmnMhzpM13p86ArdGNtdaRuNiZvdumxt+pyOCzzuS91OjA1ujN3u3O3+3Z5/Lb6PLm7/bu9Pnz9/v1+Pv5+/38/f7+/v////9TjoL2AAAAEXRSTlMAChgkMD5KWGRwfouXo7G9ySKAIVMAABSBSURBVHja7Z1pY7JGF0DdRUWFlqY+Lym1oWIV+f9/70VxQRjULDDDzDlf+iQuSeT03rl3FjodAAAAAAAAAAAAAAAAAAAAAAAAAAAAAAAAAMjTG5zho4Bm6A9GljWz7blzws3Ivljatj2xrMGgy+cEP00q3sxeXpV7iOPM7cl40ONTg5/Is0PLXrxmXtHDo4Z8gPBlugMrjXrud0ij4WRELITPyzeczL/nXs7C5Wzc5yOF12sN68fku0q4mI6oTuCF0DeaLn/avouE8zHZGB7bN6tJvmsgnJCMQZJ9Fwct4iCUGEyXblM4c8aDkKdnLRy3UZwpLUK4BL9Zw/adU/GYMAjpyG8hQ78TyymjQdP1s5auTJwZmdjkod/UcWXj2CiIfnIVXIy4GOgnV0GioGljv4k6+pGIKT2UUJCK2BRGC1dFnAl9QRPo246rKMsxl4fBn9QgOGcoqDfDpas25GGtw9/McZVnOeRCacp46bYBZ0YQJPwRBMGw0R8jQYpfhZizdUSr3t/cbRsOPUF9GC3d9kEtog1Tx20lpGE9hn/zlvqXVsMsFNRg+Ld024tjcQEZ/kk1cMpAsNVYjtty5hhI+SGVBaVIa8uPmQb+paUIBra1/HX1gKlh/JNcitCOwT8MBGP9w0D8w0Aw2T8MxD8MBJP9Sw1ky2ZL0NM/OtJtYeq4GAjSmGjrHysT2sBIY/9SA7nAitPX2r90fSCXWGl6S1dv2CxHA4ZmDFQWwK7+LDlJlQKEQgREBcjSBP/Sg2O41AwApRrICmk1O9CuKSzpRyvI0DFGQHfG5VYvAS/N8Y9uoILMXJOgF0MClovNJScBsz4azKuAqYSVbEE7xgnosi5GIWzz/GNVgkKMDAyA1CFUINQhcMJyzWTBpScASg2BnCCtBFPXVGjFqEDPMVZAlxBIACQEEgBdQiAQAAmBlMCEQPgy/cHIsqb2jalljQZPT+OxzPaPXuBPqDey7IUjHso5zsK2Rg80NDwAMh3yzQQ6tGzneRXhOLY1FI52Ro7hArJL+BuRz/rUjVQde1yOhHPT/XMdzgz8EoPJ4vPBy1lM7j/uvvEBkHWBX+rdfcW+q4M9ejB0Yr7D6Ju3MHfsESVIDsqQTwU/a/n9tOksrS4lCGXIF/T7sQPEnWnPtL3AlR8Fe4Qb1y9TkBIkg2MSJOgH5ODPtZwtCgZysDyGCzwhB8vLvjbZlxwsjzHZt+YcTC+a8EcvWtXRH+GP+WCJxS+9lyZgWWpV+mW5FI0YiQxIvwwCZS57If0yCJQIwz86gZQfpgwCEa7oH+VHowJyXCr+SYXpYPyjCsE/c+HAaPyjClEFGx+aF5AFMfT/pEIZfGGCfzLgLurMv0mFgwIz2CqJgFILYNa/0IehAEZAU7FIwLJgPUzKAP/oRMscALL7HAGldgDRAAFJwAhIAgYEJAGbJqDpp+UzBSIZ01cj0IJGQJkMCYCyp0LGRh+PQAWiwDCweB8fFmEBDhIAjXPQ6hEAQaqD9ogACFIVXBoVBgmAKjo47RMAQW4mNqQ3SA8QBaXCPQNRUCY9AqDaCupejrAMRvlyRO9zOyhBlGep8/GBlCBtCIJzfYeCUy5vKxSc6JqHOQuhJSwGZGAgCJKBCYLUwCArCGp3iBZ7kdrWltYsDY+5pm3rCeqVhtkM174gqFVXmgzcQgM1mppjCNhK5l2GgCB1IKjLamm6gJQiUuGmXK0dCI6oQQADvwlnUrbZQA1mRUZcxla3Y1ovoMVVxECZsB8OA5mIA3PHgayGphamCwPmGoiAGhjY4jkR2oA60OJ54QFXTwsDuwgIMmnt6iwE1IS2tgOHXDpNCpGWrtJnJo5SGAHB3EIEAfXBRkCQmoQtihCQamAL+9G0YXRi0UVAkMmEFAz0Yj6h34y1CCRhWXStBfqRhGXRm2IflTD6wU8zRz+QGgKVX5XQRT+tUX1O2GIfHHWIxMYzla/+SVjde2t26fuZwEzZvjPZ14wQOCD8gUyUXBk4IPwRAmUWv+0Lf29v73/9gU1ahMCu3SL/fnv79f73x3/JkTdk0iEE9tuRfn9/+9/7x0eSBwF1CIEj1cPfH2my/fg3EfBIwFUQBN7jN06fEWT/8p4+t2G8dbTbRb4JvcCJsv799vbnNdmKeSRglD6+ffj+q+NbnFVMkkClPz3M/r6orvdX6KQEFad+j8n2n4/kOc8ETB7+mJ2yAh7920XRLqxtFNil/KhItu/iZPtFAR9dQS9RVcA0NO9uI4JafjVF9mh2VbkR0inZRslneSrg4WmaU1HA9FfPjUhr+dUW+HdOtr/eU4s+kq/xRMA0xz4Yxh+SOFZTwF0SuzUL6AwN9++PY08lS7bvtQmYarWrLoHTBH0V0I9jXx0B4/oFVGFJghz/0mT7132yrVHA7V0uK5UgbvykTNFYQPmdmIb9O05g/CPsqdQoYDqa31SXIJHJArrS1+Y35V8u2YqpUUB3X2nYJklWRgsouwypv/93XC3wSmVbp4DrJFmLH06SvWu0gJJ3aNY7//H74wmM5gTMPBOQmVktoBdER8JXSpN02uyIcDLv/D4boUOr8wulCCh3c0jN879vn7GoVgGjY6YVkOXmqjZMsLv9jMjLF86ZOJv0hZcXBPvrU/dFU8LD7X12q+oHb4/F1X9spFEO7tecf9UR0BNfuFX2bbGA3vb43vE2ivYnRzb3AnpnO08v8E7GxGkcO/1jn4+C3unVcfrg7lAyyM+eH0Xb0z+2zQsoMQd3615/pY6Ap25L5VyDUMCTN+HZpNVxELvLC+ifQtYmWz5z/OKwzk2tHPw7/+LL+3j598mGAEl8WYpzemH2RP+4QueQHIIb6f8Bp/+u9MnBtRfACgkYCCeEzzKIBDx6k5uJPX29vQkY5EOiXwhMR8u820zLXRv8OPW8zr8w92sdg+rBa3gMKO+YjvoXYCkkYHr94tJj4fkxkYBxcfrkaGBweVaq0WGVfyQsvvHhFuPu38e/rc45yugX2+K7pgWU1Yse1r8ARiUBQ8GE8EU8gYBhefrOvzicPutunUBU7nNH15AYlWZhNtffZF/uDuW/1ZCA7kjPAaBiAnplo64TJAIBE8HsXXgupY/pN2fzShRcD5fXb0sPepcfK5qj9nKrF5sSUM588Mw1S8BjdisodZ0iLgsYioaMF3OC+yFfJFIjuFi2K9t5OL96J5qiDm8hsCkBlzL8GzumCegXE+UtJpYFFM/dnc0JksJCvVj43MPl55czf1QRk69zM40KKKMR02tkB5xSApbmO26jwpKAnngfiR/45dTpixdcb875el25ECIUL1O8NYyaElDGgoQmErBqAoaFS3i4VqolAR8vTL1v6WzEa71W5yd5SdVqxK14AnCd+z+mIQFnOlbA6glYmBDORa6SgNHD1QnBXejaVSz4v4wT1/kmdfVUb35kEDYsYOODwO7CNVHA7d2EcK4E+LyAzz1Kv7+/zXYcJ038CkOrzG1OwMY7gU3dfFAxAVf5S54vAQQCxp8QMKoQ8PIeq8uahjhae88FjBsX0B3qWIGoJ+BdbbvJhcOSgPEPCJiX2Auva2UOl2lhlQRseHfm1DVUwHWuesg3T2qJgMUGoB9uz2tc1soJ2OwhMX3HVAFz1t1VsgIBD58QcPckBedL3N1tn3yVgIfmBWy2CrFdYwW85d275Vm1FCEH8ZE0pwVZ/iNzmy9Cmj2iY+CYK+C18ljddZpFfcDVqwJWyOpVNqCD83TvXhxm/eb7gK470DIAun+qJuC193K/RF80ExJWt47vBVyLJzTO/eQwCkW/kl/dwb59u0EBxzqOAF33XTkBL0O/+/nb8lywePbikLX27gWsmLY753jRaPIcHCvm8PITNI0JaGlYAisp4HGZlOsWt2mWBRSepbC6rYbJf3sveu4l2UeiB8+jPOG5ccEtdTcoYHNlcM8xW8BsQriwLqEs4EpUom5v6wELygifG5Tnje8F3Igei2+DAy0FnLhmC3iKTEW9BAtSd+UyxL/k5YKAx5f75efGF28SQSRdn3+XUngMcwm9KGBU35VydFoHrbSAJ7O2BbsEAq7utgeddDlcXlUU0C8/N7n+hKg8RLzKvS4tJfTzThYF3Gog4Mg1XcDVaUPH3n0i4GlfUXF3b+gKBTzm0kPeaD+3S8lLiv2Y3Maj9J+xV/AvqOgwxg9POfyugE2tSZ0bL2C253v9VMDT0dFhPjXe7wsuOpV77ubuq6NU+5ueqzhv9i5v3KlHHVa1uNdJ5QE37WkE9hwEDMunlotPRjg9cZsugl4FW8HJCMUYmD3Xz54bFsJasg/THexBsNkn95H1+OxDlO42D7JZuqB6jiXMDlgI2yxgoyWIogK6pZxYdTaMnz8gI3d0qkDAU2CrOv8lO+Oj4myN4O6F3qPZ5E2N92xoqBO9ME/AVeneM77oO2dVCg+tsqNe0oV8eaW8QNQQuT53U57F88LsWJj0pJlyFvXPq2T2m9KvVRz0BekhW6taLpWl3SyIKgKCQgI2nIEREAGlZmAEbA9THTMwAraHRubixi4CgkQB7ab/qvSWb6+TWvTr/Wv8jkBtELDr8DmDRAGHfMwgU8BJ438VKRgBZQ4BVStCvKTGuSwEfIpjuoCb89PRTYqAA+MFvNwRJsC3EjMNu4CqCehf15zgWwlLxxpEMQFv993yEE6CgLbpAmaHUxWXi0JTAjqGCxhma+5OFiJc8wJ2TRcw2wuStWJ8jCtQ/xGVA9dsAVfnDsyeMkRE/XtCRoYLGJ3FC2kFCnDqF9CS8Gf9rZCAlw5gloNrKENWYXR3Etb5PujrVpTcjpZdmM8JVa+A62vgO3Vj4lJwLBNcHyvsY8u9QXR5YraD7va2ufug730ElNOFUUnA09Bve1Nx9bMCnmf5LgL6h7t32iov4BwB6xXQy1lXWpHwfQEvG3/jXMcnT6x6Hm5gKnhhtID59t+uWIZUCOi/LOBVuFjsX/Lw0H0VmGjZh1ZIwCR3tkaQFE6HCaJ7DrlnvyLg+qrZ9vb+SXz6Ceu4FWvALASsVUD/btz3ZEWCn3/8FQEz3y43oCmuOjwPD1dKCzhAwFoFPGXd65Fs24crEjKBLgcIvSpgUEjoflHovdJFcA8B6xSw0PvzkySpvInCedXgyv2UgH7hZ0WlFygdAps4n9JkAcNCyDs8mA3Z3Qv1moBB9c86Ej8S3pAi2GgB48Kgb1O9ImFTmCh5ScC42HAMBV1wlZfgNHAwR89gAVfFsndVWYYExUdeEnBdrLdXoiJcYQHHRMA6BdyWrv+hogzxSwHtJQFL7xAUUHwrSiMnRBssYFbW5jt9sXhFglcW8xUB41IIFbJWV8AOAtYo4LrqZaXpiX15bPiKgNvXBFS3F20jYJ0C7itftxKl6vu4+IqAL8wrqy2ghYA1CuhVv24raNYUNPmsgK2MgEMErFHAzYMXlguQ4oTF1wQMRCjbiW7mdtXGrobJhntFG3bFuuB+Bu7LAvotXPHfzJ0KTV0P6IsL3lK8O4jnywQCRo8EdFu4891CwBoF3FWEpEIZsqto1QkE3D0U8KB2x0VWF7DZG1UrJKBXNemxuVuRsKlanyAQMHko4Fb085TOy8tmbpJkmSlgWDUJscqXIevKubmw1DAMHwvoC1J5qPSi6GkzAo7MFDCuDD6Hm5qZNMLVAkFxTOcljwV0BT3ug8qrYZxhMwIOjBRwVd2BC69RzztUVw7FFH5+7gMBw1I03SldmDSUgaUsh5Ev4LZ6Lah3PaotfnRezOFO4aAwjScQ8Px2h0vaX+3V3prZUAaW0ol+e//rI5IqYPJgJd7+3KDZPGxTX7a4bddBuD3ZGD8R8Dy6TA7bML275V7xMwmbysBy+jAnfn/79f73cxHrEHD96ByO8Gxn9Hie5FD8tvdEwNtRrMU9niZnYDl9mM+IWIeA+4fB56zGEwH9kkrPBBQYqO7pHI1lYBlnRIv54+1/7/98/NeAgKvHGzCz4mD7RMD7m6Efzzh4KqDr3b9npO7MSAPHYkk8Jf9TItYh4Gn1aWX08U8Ph8V96VduvZjdZVSXnZYQXc/BOr1WtNTZCy+Dv32o8sTcotMcqt4q7i29odLHB3fLlMK4QQHnyn8av44iImCTGbjboICTlnwob3+m3Zt/EVCvEqTTurtl/va6iAiofgnSae39go8iPmkjIuAXsTuNMm/1h/WgjYiAXwyAo2YFtLT41DIR/0PAdvVgjvQdnT69XBsRAVsRAOVsTGpCRO6Y3ooAqMB0MBgdADtDh48d5AVATXMwtCUAtmcyBPQMgJrVwfCdADiUIWDLe9Hwc9hS/JOyORNUDIADOQJ2l3z24Da8DIZWIBRYdmUJ2KMMAdcZd6Qx4+MHW55/6u1NguYDYF+igPI2qIMq/lky/SMEGs+8IxdCIAmYEAgmVsAUwiC1AqYXCPJa0KzKAnlzwMwIgwIdmNuiGJIwA0BaMdA0i64qAvZIwiYWIP2OMoxJwuYNAIcdhSAJG+ffSCX/SMLG+TftqAWVMP7JhdX5JjFXzr9Olz2aBvnXVU/ATp9hIP5JhcOK8I9uIJjrX1qIYCD+0Y8GY/2jFNa+/zdT2j8M1N2/aUd1MFBn/6yO+rA+Wl//Rp02QAzUFJXW/2GgeeFv3u10MBAoP14x0KYjrVn6HXXaBXMiWjHvd9oG88Iapd9Jt9M+hrRjdEm/g04r6VOKaBH+Zt1OS+kyEGw/i2GnxYxIw4z+5O7WpB/TZv3sfqf1jAmC9P4IgvB5/axuRxMYCbYw+057HX3oTgiC6Cc3D89QEP2kMmAo2JKx30RH/VCwJcFvMe529GVAIlZbv9mwozm9KRWxssHP6nUMoDuaEwbVs2857XeMoT9Z4KBSsW867BjGcIqDitg3t/odI+lb5GLp8k2H3Y7BdIeTuYOFcgZ9tmW2fLfezHhqY2GD6jn2zBr2EO++PTMYWVPbXjhQFws7Fc8aDgh7AAAAAAAAAAAAAAAAAAAAAAAAAAAAAAAAAAAAAAAAAAAAAAAAAAAt4f8gaV/ZiTURDgAAAABJRU5ErkJggg==;" vertex="1" parent="1">
          <mxGeometry x="257" y="502.36" width="180" height="112.78" as="geometry" />
        </mxCell>
        <mxCell id="otJLdj2KDgQP4S8bH3IS-22" value="" style="endArrow=classic;html=1;rounded=0;entryX=0;entryY=0.5;entryDx=0;entryDy=0;exitX=0.5;exitY=0;exitDx=0;exitDy=0;edgeStyle=orthogonalEdgeStyle;" edge="1" parent="1" source="otJLdj2KDgQP4S8bH3IS-21" target="otJLdj2KDgQP4S8bH3IS-23">
          <mxGeometry width="50" height="50" relative="1" as="geometry">
            <mxPoint x="347" y="438.75" as="sourcePoint" />
            <mxPoint x="497" y="438.75" as="targetPoint" />
          </mxGeometry>
        </mxCell>
        <mxCell id="otJLdj2KDgQP4S8bH3IS-23" value="" style="shape=image;verticalLabelPosition=bottom;labelBackgroundColor=default;verticalAlign=top;aspect=fixed;imageAspect=0;image=data:image/png,iVBORw0KGgoAAAANSUhEUgAAAZQAAABlCAYAAABqfBWoAAAgAElEQVR4Ae1dXY7cRq+9W8gavo0Z8F784KUY3okB7yJAHBgG/JDnviBZ/DksVknq6ZmxxwwQS6of8vCQRUrq6er/u/V/zUAz0Aw0A83AAxj4vwfIaBHNQDPQDDQDzcCtC0oHQTPQDDQDzcBDGOiC8hAaW0gz0Aw0A81AF5SOgWagGWgGmoGHMNAF5SE0tpBmIDHw5cPtn7/e3378fbvd+PzD7Wca0pfNwFtjoAvKW/No29MMNAPNwCsxcFhQfn783+2fv8L/H78+Herfn27f/vrf7dvnf1nWf5/f3/559+n2H199vX0nfUs90v/9y70wcD7qvlfmM8x7tbta5OfJlpEd5tsobefn6xgoTjWeopb7znfYDiRu/HYVI8emPuUcqH1od1qfj5SNNv17+/Huf7f1Wt7FwRN89EiDHiLriIeHKHkRIZuCIkZiYv/39uOjJv7H4buW1HdBdgYTzr+m+4z8B43ZJKYHaViIQX4Wg843rwoKt7+/ffurehV0HcPVZH3egIsjN377ZTBeNOl2I3+M13eX5+4mHCXS63Gw0/br9h3x8Osiz8jWBYXvUp4jiDKE2+1aUn9qkOH8a7pn7M/WsklMz6aTBSM/T9a1KCiUXL9/WS2k6xh+mWS98dsvg/GyU8kfz5ELVv5XgNfjQGf+XscjHn4fa9YFhe9Kdo+jYiQtEn8lNt9tYr8GJQYKJnUhd/36AufK3dP/7LUK60uvy1i+teF81H273cbjvtlk88KHqzAm2lxjP8PBFDKamJa6aIboM6zp1RLbZq8rlfsDG83vKBv8odgm0GcbyAfC28Q/i0AfZR/TEOD041e+Bow7bhT/klv0I/Ko8R74jGar7Ng2zgmzY3Qd0RbvD/Gm9sZYJJlJV5TzDzz5qa6v/IrJ/lhg+Nrix+QH/lmH2kzHEO+pD15drfoS5oKm0BRwcKtcyytUtUlem2uMfP8yxihO8HH1Kl3HDxt1DU040zjlKo2zeI72q0yzTLAr798+i18if+jLRayZvF/nZFNQxpND+Kwjw2ajldjb/KTB/ZHML5/kr14saYlEcwJf5kDJWsWxQv5wTMCQMdFslm9j4vwZ83+fPwyMNBPHygL24mUJ3WTP2M9ykK28W5diSYF+M+7J5o2NlmRiEAsPluyy7An8vgH8wQs+6sq8L3wMcUV/UVUna0UCcaGL3WRkHbMfVY763LjwDjnbcEMYfN7Q+Ve4aeO5gYsoK54PnVEe2Kcxn+2Dp4xs47+3H5/189EU9xwTARfpz3iiH+M5jf370+2HfuaZ5w1b6kPEceQjGQsFj3k4jnX3ye328/N4pQ84N1zBuJFP4DPgtHb0RkfXqfoqxgHxnfvNlzVTv0rrtqAwyFDhYwWVO/lwt8KDibwReDwv96vZMVByUs/O0zl69Lm8iBLReWHRLEhgqUhgMVMdfoyLVhZRsbAMQ8J+gQPXOM44UAtdeudF/aZ3zIn6qv5JiTSAjYOfuMhoFPCUFtFC7KJZOPJYSpzxrI2P2cbEy7iDN8yV7ZkbjVNFCXMqTDIQeNC58bjhBnkWHdNnlPFDapDlnIg6ut6ttdBfJDEtjO6HaMRGFw/LPpS5Zl/kOoqlc7Apd+Zrx0GyMd6zj2SsxUAWNa4No8Z0SNwwBXDW9vJ4GKcFBfMe5J80XnRu5NOAHZ8A+vUvjguKYmQiwiOjXtsrFX8spiDdLzwPFBKPY3OgKAA9jsB5F/8yTPvGq5AUJODQEwWFgzfYZUFaBQO0IXa0yzHKGXKQe8uFF3Sx7IBRH5+r1xlV0ljamPgxXKRbC1jAYf1nT4rFMfO08fFC95QodtxUMqAN/WimMfa5mFk/nYAc6Emv5SodqS3JYp9pbFMf+MPXn8eCPv0kuQOWxZDKMbg5Nuk62i39UY+dMz7RR222dlR2skmb6+MmDkaRdPkZs0usY73mxGYlnEuuqnGJzxjf8dx0DVtgnXKsRZ9ikfK5v9bZ+YJCuOOCSkRms5g4Df7cmZIWknzgaL2DpoICQS5KYNENvYgFAw91j4UScMdEVSYL4AGxo95MAuLIvUe6EPc02xssMDUgD2xMvjFBZKcuFLDZRpw6Ydy7ZM9SBOO3yscRR9AY/XTITYUf2tCPoqZqCwD0lPlWrrVRjhGjPiF4QqQxSQdgGsVq+ABk5XGodpab+kkWJv8cm3Q9FxRIgEmmXI5Yi3MPsUZBmzjIXJVxO/SX61m4XtqwwDlxlcZVsRfb+DzgEWsRC4+JnG1iKrL1K5xfKyjstPiYHYMsmZOIxl5xtDozEj4tKpwIn2sI8bh4K4dxEJgTN7oJsybNofdw4YKdBwkBbEEc0EUXIHf0xrZ4Pk2eG8wOmrezsVyY4ylSObyo29HgwvH2/GTp3Ew+jjc1JuAK7ye4nZJVfoo2xcWJY8fObHvCzINT28QzyaY1R8cQ9yUnUXuSG7v0HJJWtkH16uAT8nSovoG4K3YcxxQHk498rKk+iHXMCzZLTibuQ3/kKo1jnGl9QVsaL1IjduFWcyP3R30Bxq94ui4oZIQGwUAOxOhfngB58XsqQgy8I7YPhiOBebEeBSvO5aCIi4sdFgodX4dXdSlhgk3suHmu3UVWwQBtGft5DqbgALmjF9oK2WTb8Bl+8B5wHdk4+IEPN8s5ntCsWE1GpAbAv+vb+Xi2m30Ir1fmMfwHFhrPFQ5oC3wRzGx/gp4vp5hcrZV3+ZVQ0guYRAvZyk9uastQzjoP1qLFMc/xWOFL0IX8T3+cQhN4fFgrXDjGB+BfPsCXFRmb4gU9A/zygDiQ18RVWtcsMvuNdQfOuV9fCwqI+kP5DVfJHsgnwy5sE5uiL8QuxwF8jcIJ63HJ1+t3rAuKJZbwHg8ClsCPhRteYUBlnfo1CWGgIOE5UDJJONcxeHCrg/i97sevlz6UZyxqT/5z1BQ8jAzaKuyZo5qDbOXhEwpPEC7s/XV8TB6LR/tiAG9ttIWJssGvhc3QPxkjDbhQ8qDo13hO45RD9bFe+6sakh1t1CSo9sPrUcA/cEBb9CPqcnmeALIldA0cUzwt1g5ijno1aWu8DC1FEpSeGaf7JMnlCXl81JP5j/b4uMlGLRoDo3Gl7aQXeB42LQ8Zh2KmOMg25bEiFDDm9UxDVlgBp+rVXOgcZHtYX/L13CZYlZ/5+1ix//3txxfaWSToXPL1+h2bgvI4cD8/aiJ4nMyW9KswQMH/ewT7r8JY42gG3ioDL1RQpLL7HdNbpfMPtIvu8OId6B9IQZvcDDQDwsCLFBRSRY99+HjfLmgGmoFmoBl4Sww8f0Gxd5T92ustBU7b0gw0A81AZuD5C0rW2NfNQDPQDDQDb5KBLihv0q1tVDPQDDQDL89AF5SX57w1NgPNQDPwJhnogvIm3dpGNQPNQDPw8gx0QXl5zltjM9AMNANvkoEuKPxXaBe/mAffvfh6+w7fjB3fctXvZsA3bp85hp5Fl9iz+g6R7Epwkb9H0kA2A/874U+xRb4tveJhp7Xq829wZ+4II/5FpI/Vb2rrUcft7Vrr1/nVCGp7hM35W+aKPewecG/cXvK92ihcwZZQ2hWPIFtseLWvPdhfyq6+zzdsgu2HojFjh4LT6yTNvXD5hgrKvBBP8XBPQYGtNQ4W5b2L5RT4NOhZdF1PVgnV817Cwj9S9RRbHpFcB76Fn3zLoIOY0vjTmxbbLufIfu3XBHSk54E2q2o+JrkLPmBKdXHJ9yLAirNxVwnOCfg1C0qKWeYq+u0ktju4WjCzbe6CcmdB2bIaO+9dLFHG2fNn0ZUC+iyWlxp3aaE8xZaUBJ9iX4GZEx3fQRLGmDAqRXnMNbt437OPH27fDvU80OZoRrb/3rjNcqKO6nys9e+0Xf/vUlAKG3HfupM+KuRUFD21bVNQtPLp71DT49YIdA6A8ehaPEb5nRaN0Ud6lae/AS3QfSHJNc4d+jgQ8iILiyri4Y0dVWdBD8sa2MmeauO1JG96zQH9H24/6dp4SHby2AWesi8lB8CbN0BM9qk8mIO8Mb9pMbEPUptLTnh009BhL/pPbdeYUd3SrpvheUy4ltLv1Z0326j+y9yTvJ2uK7Y4ttVZjdlHMze60ej4idfcNie2ENcuCs5mf6ldaHv5iob4I9+VayrPn3/rHIDEC4i5XZyKDlhTJ+KWVR36PgLK5663WgOyyeMqrmQu8Qk+L9YM9Fvuy1jSNdiVuFN/hSmkQ3wrfvd1petNN+Fc2ROEPfj0sKBYEdEtuGHnVDEoBm52Vkw48VzscCfTNc+1xEykjN+gL4M/L7x8XTA1gt6DWfRDgtPg1ulZN/cHx6UEqwnNOMnyVC4fhT/Hkx61s+4qwUZ5rCu8m6a+hDf7h4bMCSoKjRgHX2EhoU+Vz8iP7Oj6/bPfSGQMS79ne5MttqNwjJm/P93Wuq7YEjmoznFLc+RBd+cNNxL5d9UjZhB/FMe4ZmSq2BXXqnJjccgDg+wptha+hd86B6B+McmKPPswPuOxgRdqPBG3OY7VPr+RS3rSZYzxHH/HsjWu4w7TM19Zbo6JBMkuf34MfExcJn8zV2F89TnXmXVi2h97clhQICAnY1MyqoKFk8JIMHl+HB/Ps415HveHxVFeZyH5R5xGP+hNzhtDKFCEB+kHTmgMOdASRBozBQDiykHougRv1hUXBkrShZmS+Qg4lZP1kYytzJDUea7ZKdpx0Yjt8113Qhr5Av7TuKB7KtQ6NMrStniEfk90x7ZEISfOwY4cm2k+YEp9cb3kLrou54pd6mOdhr5J8ZTXFMmd7qjr9aDy9RhjVttWMVWNnRM6SYnrKJ6rhhUXoV9PwTc5D5yRLWOmuI6cJR2i+iAOFB8cRRfcZI51IE8i9fr28WfsAYUPvbijoMTqmJIRE6yPWXgUg9HYGHQ5+MHKHPzcmZ2Vr0FCCtDQB4EgC9MfIYMNfFcu/e68IQcWOdooiwU5C9rH3Zn2RxtEToklJXWTFwPcGjGRcCINTxg0LPohTBunYjP/qFOhF/2WbI/CcmwMWTg/TqDzyHc8D+OA+9G+0KXyztkSdKxOOXZCjGhCXvjBxFSYrTPGgDXaSZmQgScbCsVn8nFaU7UfxJ8a7zwmvMKTAnYlThe2LfhyW8/5nmM74BPcs05cA2dkL+I65o4ccxlHjhVYSzOHyvmcPzJe9JHGuM3XcICYExmeWzT/6OD7j89QUPbgPLCRCG8vjEnBLyNyoOTrLAf1WW8MitXCtMELHeAs0WN3i4vFYiJZ57jr2MnxCeuzhS5fmPnuTERtuR+clL/vrsXIFkeyfSCVhR7iIth5RvcqMbD4IIuud7p0sZ2zZYBfHBi3fqZIY2IcJUyTiG3/IsZYyKqP2uPrmKHR9Ei/J5BYBOXpu/bDYs2AQbXPYYheGB5tGEdq12IcujxuF3av5AUZ4ie013mgmDwje2Fj9nlhQ4BSn7IMfQNCQ5Bz5yBMB7txvMR4foq58DQX1Nxz+tiCwuQUxkRk6gQ6WiLS1zUh6cQ5ldMnXYvACHI42aS7c7wDWASOyaj7OWjNljRmsVhM5EiCVIAIX7yzKPHGifm81IUBVyWOvR5JRoRLFif6aGs74yv8EhdEiVkNc9260KxQjyGo/0DXKI7nbFEM1RE55REa13QxxWaSEe1PXcuEQOOW8yJPLrDytfVmjKUfarkmY5zs48dH07jsP+4tdUeO05oaItH3rufoDPGekV2PAX9kPo9ARBsgJx3bDXpTATq3Tk6Cu2PYYwuK3iFaciVE8XfmBSEH1rv8+yhCJLyn1A/lB2neN8bGO8SQLJY8cODGgicLBu6OpjGUSMdvZesdebwT4UCKH4Sn4CsXS0JIMoiPKJeGDNmxyFAwwXUUxbrwTyKnRZftK+ZEkXpXrzp5MQacKD/ZzoJy2+DcYmT4Mi4q8zsmNNYVdCs/y8+vRkx4P8rb24Is5KsqKcU44n6zUXz548uQQpzHPhBOGGOMeifq9Hb1UdR/WNSmBCjcxIQv/OBNTtRq56fiFLm3uXRSxCDGVXEzM3SueQQNcJF5PBtX1R896LogBZPPi9wHQOiCbfebNMHinE/YRky7n2T9RBzTnCdwNeE9aHh4QdEK6Y+VTo5hYRKrRTOSi71/dKIteXAfzZ0XnjoDFpYpHScavCznw+0nkx30WNEIj8kx2eV+Sgwk0xJESqApYDIcuS6Sqg4EvLFw6YBwVF0wB22j0Zoo2Ecfv576DMUDVn0k/mPOV7YrNA1o5Zzw2RwapDKVc8U8JyH38eAiy9rqyvJUb2WLgl8dRZbEef3n58BzLBIZM6iY41q6Bav7IU5SuyKmYt3FKcxTXoN5/k5nFKaJUf1XxGmxzkwCx+v4E/Bq7Y+Bh743gfuTXFBo9F628PDts/45vNjpSV31aTw5D7W/dLwcY5yojjgPsE3fhq99BHOmHIX6H3m1KSiPVPO2ZbHzUtF52xa3dc1AM9AMzAx0QZk5udYy7ojjHcU1AT26GWgGmoG3wUAXlIt+hEdJe/12UUgPbwaagWbgDTLQBeUNOrVNagaagWbgNRjogvIarLfOZqAZaAbeIANdUN6gU9ukZqAZaAZeg4EuKK/BeutsBpqBZuANMtAF5Q06tU1qBpqBZuA1GOiC8hqst85moBloBt4gA/uCwt9g9W99zt8MDYyMsfh9DPzmLX+rOHxDmv8EN1wHaX6aMJCMCQeMyd/+zd/izf0J4woP6Dj4FrKjh7OrX4C8Oh6UvciFfoPYf+vkRdT+lkpGnL3GF2DHd6WmdfMiPNbf5GbV5bf1Hw/qVJ55vNo/UuK2oMAPv2z3yvItB+aCottozPyecjQl8t0izEHJiT/oPOpPe2NV2zLk/XZmSw5axoLWrU4ORlt3FxSjok9+Wwa6oPy2rrsD+LagZHllstV9cD5+mLfQ5kQaknsSeKagHCVVwoR3XnjXfNSfIE2btW13f50mVw1yZ0qF9siWPPvq+Dz/+a+R6+fX1xp+Pwa6oPx+Prsf8eWCgslbd8SlouGJ0+CcLSjwOgkL0D6p1sHqc476DamfEJb42uvoCYlmxieQ6pXckO64XJ2cnXztBtMKvscmi/yUyJjy6z3ZGNJ8CLjnDQ4Zb+SC9AM/c0Hhmw7b4A/1q7yfn9/fZFNFvRmI9uOczG1+WmWZk76MS7mSdtWNT9PYt91gdPgBbY1xq/rULurLmNKGhHHzyLyBZ9xh2daZyqZX0qIbuICnesWjsZo4HvosLoYO5UnlW/jxeg2bOYIuGzVOxG7kenRVMcqy/TU7zos2467a6Au0T+OON3G1WIn+yr5RvjAmEEu2s6+JgfMFhZ0fnUDTY7CoEwKxkLA88HWELYAQkNLmemyMBkIYu3p64Dk8jjBhcJFu71ckeoz2SBuNpYUGARsxTIui4GGIr/XKeF/Mt9vPz59u/ymk5bHSE/HLeZQLfA3f+CKR8TF5MN5LBeXM76xrEYmfbbmPmOegM/50gG7Tbpg1sSlHtu19tl24ituPs20xUW9/i14V+JFxhjhArlSfx7GuFfPHEvvYDfq0bPVbSLCTb2OsZG7IJuofPpjmauELtmjSDxidmXwm+sxnsTuvncwJ9Gfc/95+fP46pJ2Lu3gzgv7PstV/Hpc4PhrR55GBg4KixBbbUU+JOQZtVOHnkpQ9MGsn7eQMPBbIdO1OV02+uI/6ZYYXi1mW9vmCwOCjfksSAwDrN4yKqi5kq7E+a3VW8YSL13kYMmjBjmTNdmWMvICTf0JyZylBxpQkM9RDecglT09zskjgG7DEkVmucIV+qmPDpCxl612+8yRzorxKX8K0kl/aP8v2eNTCjHiAJ3uqEaSX4wJuHFXfvFaMOzgRu/1px58+pE3lyDiwC56c6n5QpReJQ7Y33jzwOPGR6Eu+GXxdihfV/YcfDwpKYIedFJLntCCig8I8OMUxU2Dz2IPAIb0WHHGhuSKWy8nyqN/nyJno1qRLbWXiNQxjvD49xWNOxFMBJuk5kDOe3TVyKSMTd+yzasEu9FYLMdsBfi/kjDjxBOKJbvZ3wktGJAzUxD4I3PpCFw5IFyaijKviqmhjv4aEl21Xd+RxAZvgKGRPvl5gv0c2+ERA7gqKcHwhLiCxa0Fxvyot9bHwsQ6E+HQ+PHaGL8aNjxSG+uZ2ejVqOWLcyE2+jLjujBe1o4/GwPmCQlNssYsDJsfrwsp3vqYuOvGMo22inxgGakJ5OsgLylG/zohHnIMLc4wzDDLWE1yUM587Lu1DXdp67rhOWjG5En6+NswkfaEXxiz8A8kL7ZcFr4kqxotYxP2wsAscgGEkmRBPa3/EV6qIa3pVxnCQP5LrNyojaQLW4BVO+ruEirJlZsY05LG9Qfc9ssEnIhd5mvFciosXLCgxdgPjcCq+8pvb63FH4mLsZd/MfNUxBLD64tJnKEQXLPbMX+WE/Zg5wdB4khOSUhaRFhwuHBocAyV9CM2ysD+Lz/PxQ+gxOixgDu6Q8GZ53sL2prFX5rskOqvsKHxAWItfZSz1Jm4r29FncSEWeFK84NyFDXFO4Fltn/2tPdHXERf1F7xAWxFzhW7TxBg3MQqydVbGpO1yNLvukV1gNXksvrCf5pyNixxrNDc8AaAl+aqICx0Ctu750Sl2tDgp5FufjJ7jjtqjz7Pugq/Sp4amTwYDmycU/KBLE9j6bnx2An6gOl5dhLs+dnT6qyhMdPn36EUHYODgDos7L66DfvyuTXVXnnUmOzl40yuX9N0WjTa2NxUUfVSPd2bnPpSf+WTuptc/hPf97du7GWP8kFqTLiSKbNu49leCuBAn370Ld976yi/4X2Mq2g43Lawv+TbEC8ZXxBLPif3kM3ZIbKvHu53qQT+yrdmWj/rHFFG2zkEda+yzX5mnnewc8/mJYml/ERfZ55XfeE35Exr6Xe3Vo9gNPtau0r/B36z7w+3H3zQh5aOAAfWLvhjHp/LMO3/iOY4XNaCPmYFNQVHHUFKQ/yGRZ0lF0KojdX78Kwuazv3vPt3in5HiIp4xlIHJwaU4PdAN4qZ/wghJQiVIglA7Jh5A/uIdr9qbCwqp0ER9+MpQ8egRcX3/Ui/eOfmN+YD7w+0n40D+gB/ihuYYR6LP+Yh4zvwZcoE3YQD9H7/y5ymmD/DHhFDjwthJSR98MP4k1uxUvuNRdGhM0NHlJ9k8LWFaYqfBF2WDTwQj+dx4KtYmjVrGBXBRxDNj9zjBhC76/V+xxbnxHon7XED8T8qZW1svmRPXrwVAfLGOu6M8s+er8mmwpU+ZgU1BaYbeCgOYXDZWFYlpM7q7HsDAz4+YUB8g8rSI03FxWmIP/NMZ6ILy1iOA7ybPJC25A/O7tLdOzK9hH9/dw9PNC+E6HRcvhKfVvAkGuqC8CTcWRthri0Ux4YSirwnlWL6WKER304MZ+PIhvJ56sOws7igu8vi+bgYuMNAF5QJZPbQZeCgDndwfSmcLe30GuqC8vg8aQTPQDDQDb4KBLihvwo1tRDPQDDQDr89AF5TX90EjaAaagWbgTTDQBeVNuLGNaAaagWbg9RnogvL6PmgEzUAz0Ay8CQZ+4YKSvlk8/iJGvyeh37Kvfzfkad9q3cpOOH7vKNh8i/mSYU/jW7/prH+2vOX/Eq6XH/zc2B8rf++3x+p6WV/I93vit+lfVn+pjf9Uf4VJfJF3Eynl/MKNhwWFg2psBMdO2m5H8UhLU0FJovfBvl8oSdR0uZc9Df+NG7qgPNp5zx07j5W/XyeP1fVopn9DeduC8hvaU0A+LCjFnBdq6oLy/ER3QXk0x8+dhB8rvwvKo/2/ldcFZWzgqJsWhp1ehTgNSElMulGevrowcu0LXOOb2bbhm/5Yj39j2+fmgqK6RGpeWHxtW1jgWJ6RMOirM8MYTi7J1iDhY/gZVr1ebayZ8OijruvO9g+AJFefEhcyginpFP307fPX2w/YhTjzJtfqV8WYhBa7+Y55Ayc/2UafTxtlol7nYGja2qlz0TaPI9+ENL4e1S1PbENB3dHWYmi2UloSJ2kb9wn7Lg64r/ht9s2cLJ+vDzCjrfGVi3Kntg7bht+yrmnTSo1Dnq6yjv0QN2mUdRg5nXd2WONf548Zu9roR5CbNx7lYWiLrTuwV7Err5s56m+FMPwsHMi8+VwHz7/RA/inGFB/ZHxB3jOcbp9QGHARNJ6MFawHgQS4kus76foCD78FnQnmxKGyIsFkuRIkLEDAsBydN4+ddzVFWZnXS7JHUORkC9vig117TqLueK4YySfKP26BvrfJkkFI7CwfAjHKyPwHvykYO87zIh8cR0EvTWPd1hbnzwVgb6fMjVvxi10eg5nHKa7tt+gRh5mnJ6OweSzrDddOl/dNcXhH7IAtU9wrUD9m7mE+rKmRCM0n2Q85HsZuxTb+pB/iTanaH37/KPtmi79YVz++iO1op/OhZ1kP//ZPxDZ2fNa1RvMQi9ob/Hs0h+0d46dYQn4r/KQ/Fpy4xnTHco/NCp9a/3zHdUHJzlIMRIoVGQEdSZfE78ndSVABehQCnQBp9/FI8LKgTI4hOYJLZbtM1Z0TmrfTmTnzhGwJRLcXJekV2lrh0ZGmmxomH5Bda107uYIzBj8pQFzIW+5ThNXR+SYMHh8yltss8Ugb22ltPp96gYNCHdopc3cxCPKY08yDKkEc2qrHyo7MIejSiXZMnJ4oCEv5ZWyaIjkpbSUbNYbc3spvYAus+6EH5F/0A4sQPsB3UWY8N9MC/rJfBgJ2mztOeJ5y4J0QV/fYezSH/U2xV3GVuJgwBrtNjmOnM7Y5rSngFoc/y9W6oCxAS5LTBSnEaOIWhLEtnmf80mevU8JrNam8ieBUJCRg3t++wR226oh6RU6pxwqjzpPjedn6yK18RDmzXuEpYovjo279oSbkAANGxnMiCNytAkhsUrmqV+S7/xAbzyHZC55Uihaib+/el2OrRIy2FHqTzrWdOFcwYVu0PZ47fj3DedoqR/RF7IuJaP70OpoAAAoCSURBVJa/ioN7YkeL7SruIyqV76+T4xqIsbjyW7SFz0OcuSxNzBV32BblRU49/vQmaqwnzkE7/M5tjvtZV+BmkdsmP16095Aj1is/apbx6o2Dt2O8sexRLJa2kXxbN8h9sP5ZT/cFxcAFDHBXUIGObXSuARdk8Gkcl/voGgnVpKXBJ84T58Cj3yQ7y6l0Ydt52bpoU0FhjvTx1G3xRbziRBNGSPwUJBxIYofar3xE2+OCQIvy3Yv21jJdh4zTZO7BrvP1KL7kxFT4m+fbnZPMiQtEbVG9uGBE9trOKo6wLcpDvYpfjzhPW+WYufLeyHvUpa8hnLcko0ps29gZfhy/wBk5cTThrJIfupX3ld+iLfEcRNhFxR22zTISHyQr5pdD/Kpc9EyvPav8RVNIbtG39KOqgSPaRl2zfTBB9KrvJv3ChcfKwFmsfdaT1hNrArtmfAnNs1yuCwo7tkh8h6CjIQVJZsaujwbl/ig3Ok/awRHpaaZKaAajOPHAOJZdvUqaHS62SMLMdiEA163thKH4NUXwg4yNC0Jn25HGpw+QNaFoIp+vbTYu9NAsp+4bxp/0zHzU76MVB3BwaKfrdljYNslL+FbzvF3O6jiKvo1xOc5h4ePY67ET5YuNGPcJ8WoN2zDnaek3TXxl/Jig6TWz9Lh8ugY/8IDEB7XFgnKIX7Tovyx/8D3r0lGqI+e2tC7vsfdojvWLLrwhSPoZLvG3WPtFDEf7t2s5UPHo03VB0Q+hNKDMwKOfOsUgkkUTnRc+3GWCYx8Fnf6GdCYY5ULAcODFJwIcq3eKmrDYlMXvvlPfJdkWJME1qY3lxVdzk93OCegeIrlQ0OukmJzyYmOZkYOAh0+Fk5iAOEFGXFCI17/hnSXn4BW54akt2zuwuj3oL+Dg0E6cK9iwDeSNGxXXTXeCn/x3y4GPZOmIsxhHKDvFDtvpPPDYKD/1s7bUlueAvinuE95yDf97+7H4ffrsN9BV8UbxYjGJnB/7gUbIGo98QkE5wp/WMOM/U1AKW5RnXx9V0j+y92AO+Fb48jjM+U4YJJv4CdJ4dt58blUk0R/oS5H9HP9uCwoplCDz95jgfEhACg8N4VYm0mW408YCjO8qjbhMMMqdCFIdPB/HVhiqR1614JJsCBKVgLzNf56rr8pmTibdJJJ1YOGlZh6r3JV/9uh45Ex40fff82/QR97G4lD5xR2RS4/zqFXnOmaIo49fBbv5GudnDvZ24txop8Zqluf4lH9N+pUst5LPRhJXDnMcZV3R7ikO7oidLF9iI/y5eoI727q7IUS/TbrGejfb4fVmxR22zfJEn/rJ+VV/UItiUl8F/NkXFk+psE+czHIpJ3Hy/vxvGC34z9tLUzdzsr8VP9+0i50xNzKQxdqfefG1JgYccR/MfODpYUF5oK4WdS8DFFTwpHivoDvmUdCHhXqHhJ7SDPwGDBTF7VdA/Zpr/w77u6DcQdrLTpE7jenO5aVAwF3USyltPc3AyzLAT0/bp/CXxSPaXnnt32FyF5Q7SHuZKf6o/2rFxAwlLPE1hHX0STPwGzLga8teZ73WG4CSPcf3+mu/BLhs7IKypKY7iAH7DKBfe3VANAPNwAEDXVAOCOruZqAZaAaagXMMdEE5x1OPagaagWagGThgoAvKAUHd3Qw0A81AM3COgS4o53jqUc1AM9AMNAMHDHRBOSCou5uBZqAZaAbOMbAtKPM3R88J9VH+rdHn/PM3+0ukO//0b/4Gr1ug33yFb/PGbjiXP/fb2zo4ufRXUzLnHAYA9AoXZzjYwcrzfyfbd3Z1XzPw9hl4UkHhRB62DYC9ZcaWCfvk+nSC98XgnPy9jCsJLSfDc/qPR13BcCzteUc8lYM8/3ey/XmZbenNwK/OwJMKyt44SQzPfVfNxeDS3f6MugvKzMn9LbkgXJWU53dBucpgj28GXouBOwtKtchjAZF++xZq3ESONzsrNnoLTzT2Cgt+knOmKI4jXfo0hO1x0zRNVvJb6vr7Cbmg8LXtCou25rGISuXLRnNmPxQ8H8NzmY/id8VBsGKQuSp3KtZLbklY8knAtOYrbLIHsnffmk/22eZ+Mqfkj2Tb68o8X21XQpAD3JLf50abNC6Ab744MV7V9rEZaAYOGXimgkJ6ZbFC0tPkqbB4nyhN+J4obA6P136dhEdOUCE5cuIM15jAVAfKhDGTTkxoMBahmM2U8M0GTaiGyZMYT2d9u91iaZQWA8fNOOLeQye49cTq2+Xv+Qo7Ght+bVsVFbSPE7sVi1CgIneE3cbgfLXd+Pz70+172BGW5Rs29W/gP/sTeDoxPuLs82agGdgy8IIFRRavJYYBixKCJLqxuC050IB6TrSIEyvMib36OwGa/CodIcmNjRAR4x0FJeMpkpgl95zwEny5FAw2hxsjrpqnzC3aVSrCHziyLfKVP50TdWubHgULYZ2Knsqz4jHmEAfW5vOld6drbO2f5laf5ZnthS+249WsPjYDzcAhAy9YUCQx6OsaOHICzomEsFdtaFNZUHSH3Om3PGp5LOPd6ne6MaHJ2PATvQCnlo8/GpTGQIIDYeECMUhHbDviVp8qFr8Pv+QrFNuARv1iSbrok5+VzYVoIe9qQWHO/LXpuhgRsB3fqY/tqNrAwL5oBpqBBQMvXlDqJEToqoVctaEluaDwdfzMhpOlJrZans759q569RQT9yIhGqRa/ksVlDW3BtA2e9SnHbX9x99jDPC1slfsrPVJ3z+LAs367Ili6LxQUPgVV37VZ/Iq/lMbFPDUx3CqNuevz5qBZmDNwJ0FRRYdJhRMvFogfMzRQq36qzY0hhOUvWIqcEGCrOV5khMbNNmKJrTLxyIOuarl86/qrZIeJLhKJrUhBhkV2xZ6V+KMkyO+VgWFdPvnOagmYGHb0jgoHjITOQ3zuTvaWegFeXkuCUhtwHfqY31Vm+Dsf5uBZmDPwJ0FZWxrbknStznPBcSv65+yXf+GPAE/XtxYUAaOVGD8L4FqeZDQONnq5zqEISa0VYJVkkW+/vWYtOL8ySZIcConH7MM6k9tLAeTt3Mbfwtb/SBPbfWH2vpEN+wNf0FHmnFOxoocM7ex+Ax+LS7G9fq1VbQTZSsH67mELc0BvlMfm4JtEBvZ1L5uBpoBYOCwoMBnHfSZhBURWejaP/8+uSxMSxxDrSSY8P47JX98OsDFDcijPJNBjRHX+9uPL59u3+wVSS1vShqcdPT1V0xo5wqK/na4crO1CRJcZaHbhFwiLhp1xK3i8QLrsqUv8+X2/vz8/mbzLQYqvDPH8prK//IKcJIs4sBk5vnJTi1A/PnY+HPr5VzCl+QB36mPzcG2KTYqk7utGWgGmIFtQWmOmoFOqB0DzUAzcJaBLihnmfpDx3VB+UMd32Y3A3cw0AXlDtL+pCldUP4kb7etzcDTGPh/W3hUqSjAlBsAAAAASUVORK5CYII=;" vertex="1" parent="1">
          <mxGeometry x="477" y="378.75" width="274" height="68.5" as="geometry" />
        </mxCell>
        <mxCell id="otJLdj2KDgQP4S8bH3IS-24" value="Not from Akdeniz University" style="text;html=1;align=center;verticalAlign=middle;whiteSpace=wrap;rounded=0;" vertex="1" parent="1">
          <mxGeometry x="347" y="363" width="120" height="51.5" as="geometry" />
        </mxCell>
        <mxCell id="otJLdj2KDgQP4S8bH3IS-27" value="Main Dashboard" style="rounded=1;whiteSpace=wrap;html=1;fontSize=18;fillColor=#dae8fc;strokeColor=#6c8ebf;" vertex="1" parent="1">
          <mxGeometry x="257" y="728.75" width="180" height="78" as="geometry" />
        </mxCell>
        <mxCell id="otJLdj2KDgQP4S8bH3IS-28" value="" style="endArrow=classic;html=1;rounded=0;entryX=0.5;entryY=0;entryDx=0;entryDy=0;exitX=0.5;exitY=1;exitDx=0;exitDy=0;" edge="1" parent="1" source="otJLdj2KDgQP4S8bH3IS-21" target="otJLdj2KDgQP4S8bH3IS-27">
          <mxGeometry width="50" height="50" relative="1" as="geometry">
            <mxPoint x="407" y="659.25" as="sourcePoint" />
            <mxPoint x="557" y="659.25" as="targetPoint" />
          </mxGeometry>
        </mxCell>
        <mxCell id="otJLdj2KDgQP4S8bH3IS-29" value="From Akdeniz University" style="text;html=1;align=center;verticalAlign=middle;whiteSpace=wrap;rounded=0;" vertex="1" parent="1">
          <mxGeometry x="347" y="639.75" width="110" height="40" as="geometry" />
        </mxCell>
      </root>
    </mxGraphModel>
  </diagram>
  <diagram id="8WI60aYEfgcWOYBQqE89" name="create-internship-flow">
    <mxGraphModel dx="1886" dy="892" grid="1" gridSize="10" guides="1" tooltips="1" connect="1" arrows="1" fold="1" page="1" pageScale="1" pageWidth="827" pageHeight="1169" math="0" shadow="0">
      <root>
        <mxCell id="0" />
        <mxCell id="1" parent="0" />
        <mxCell id="syXYu_YrFkgmHkafX28n-1" value="User" style="shape=umlActor;verticalLabelPosition=bottom;verticalAlign=top;html=1;outlineConnect=0;" parent="1" vertex="1">
          <mxGeometry x="100" y="370" width="30" height="60" as="geometry" />
        </mxCell>
        <mxCell id="syXYu_YrFkgmHkafX28n-13" value="" style="endArrow=classic;html=1;rounded=0;entryX=0.5;entryY=1;entryDx=0;entryDy=0;exitX=0.5;exitY=0;exitDx=0;exitDy=0;" parent="1" source="syXYu_YrFkgmHkafX28n-15" target="syXYu_YrFkgmHkafX28n-17" edge="1">
          <mxGeometry width="50" height="50" relative="1" as="geometry">
            <mxPoint x="270" y="290" as="sourcePoint" />
            <mxPoint x="200" y="321" as="targetPoint" />
          </mxGeometry>
        </mxCell>
        <mxCell id="syXYu_YrFkgmHkafX28n-14" value="" style="endArrow=classic;html=1;rounded=0;entryX=0;entryY=0.5;entryDx=0;entryDy=0;" parent="1" source="syXYu_YrFkgmHkafX28n-1" target="syXYu_YrFkgmHkafX28n-18" edge="1">
          <mxGeometry width="50" height="50" relative="1" as="geometry">
            <mxPoint x="220" y="440" as="sourcePoint" />
            <mxPoint x="400" y="400" as="targetPoint" />
          </mxGeometry>
        </mxCell>
        <mxCell id="syXYu_YrFkgmHkafX28n-15" value="&lt;font style=&quot;font-size: 15px;&quot;&gt;New Internship&lt;/font&gt;" style="text;html=1;align=center;verticalAlign=middle;whiteSpace=wrap;rounded=0;" parent="1" vertex="1">
          <mxGeometry x="190" y="370" width="120" height="30" as="geometry" />
        </mxCell>
        <mxCell id="syXYu_YrFkgmHkafX28n-17" value="&lt;ul&gt;&lt;li&gt;CompanyId&lt;/li&gt;&lt;li&gt;EmployeeId&lt;/li&gt;&lt;li&gt;StartDate&lt;/li&gt;&lt;li&gt;EndDate&lt;/li&gt;&lt;li&gt;TotalDays&lt;/li&gt;&lt;li&gt;InsuranceType&lt;/li&gt;&lt;/ul&gt;" style="rounded=1;whiteSpace=wrap;html=1;align=left;" parent="1" vertex="1">
          <mxGeometry x="180" y="190" width="140" height="120" as="geometry" />
        </mxCell>
        <mxCell id="syXYu_YrFkgmHkafX28n-18" value="CreateInternshipCommand" style="rounded=1;whiteSpace=wrap;html=1;fillColor=#f5f5f5;fontColor=#333333;strokeColor=#666666;" parent="1" vertex="1">
          <mxGeometry x="400" y="350" width="200" height="100" as="geometry" />
        </mxCell>
        <mxCell id="syXYu_YrFkgmHkafX28n-19" value="" style="endArrow=classic;html=1;rounded=0;exitX=0.5;exitY=0;exitDx=0;exitDy=0;entryX=0.5;entryY=1;entryDx=0;entryDy=0;" parent="1" source="syXYu_YrFkgmHkafX28n-18" target="syXYu_YrFkgmHkafX28n-21" edge="1">
          <mxGeometry width="50" height="50" relative="1" as="geometry">
            <mxPoint x="450" y="250" as="sourcePoint" />
            <mxPoint x="500" y="200" as="targetPoint" />
          </mxGeometry>
        </mxCell>
        <mxCell id="syXYu_YrFkgmHkafX28n-20" value="&lt;font style=&quot;font-size: 16px;&quot;&gt;Failed&lt;/font&gt;" style="text;html=1;align=center;verticalAlign=middle;whiteSpace=wrap;rounded=0;" parent="1" vertex="1">
          <mxGeometry x="500" y="270" width="60" height="30" as="geometry" />
        </mxCell>
        <mxCell id="syXYu_YrFkgmHkafX28n-21" value="Show toast notification about the error" style="rounded=1;whiteSpace=wrap;html=1;fillColor=#f8cecc;strokeColor=#b85450;" parent="1" vertex="1">
          <mxGeometry x="395" y="130" width="210" height="70" as="geometry" />
        </mxCell>
        <mxCell id="syXYu_YrFkgmHkafX28n-22" value="Invalidate get internship query" style="rounded=1;whiteSpace=wrap;html=1;fillColor=#f5f5f5;fontColor=#333333;strokeColor=#666666;" parent="1" vertex="1">
          <mxGeometry x="395" y="740" width="210" height="70" as="geometry" />
        </mxCell>
        <mxCell id="syXYu_YrFkgmHkafX28n-23" value="" style="endArrow=classic;html=1;rounded=0;entryX=0.5;entryY=0;entryDx=0;entryDy=0;exitX=0.5;exitY=1;exitDx=0;exitDy=0;" parent="1" source="syXYu_YrFkgmHkafX28n-27" target="syXYu_YrFkgmHkafX28n-22" edge="1">
          <mxGeometry width="50" height="50" relative="1" as="geometry">
            <mxPoint x="500" y="760" as="sourcePoint" />
            <mxPoint x="540" y="490" as="targetPoint" />
          </mxGeometry>
        </mxCell>
        <mxCell id="syXYu_YrFkgmHkafX28n-24" value="Return created internship&#39;s Id" style="text;html=1;align=center;verticalAlign=middle;whiteSpace=wrap;rounded=0;" parent="1" vertex="1">
          <mxGeometry x="400" y="660" width="100" height="40" as="geometry" />
        </mxCell>
        <mxCell id="syXYu_YrFkgmHkafX28n-25" value="Show success message with toast notification" style="rounded=1;whiteSpace=wrap;html=1;fillColor=#d5e8d4;strokeColor=#82b366;" parent="1" vertex="1">
          <mxGeometry x="90" y="740" width="210" height="70" as="geometry" />
        </mxCell>
        <mxCell id="syXYu_YrFkgmHkafX28n-26" value="" style="endArrow=classic;html=1;rounded=0;entryX=1;entryY=0.5;entryDx=0;entryDy=0;exitX=0;exitY=0.5;exitDx=0;exitDy=0;" parent="1" source="syXYu_YrFkgmHkafX28n-22" target="syXYu_YrFkgmHkafX28n-25" edge="1">
          <mxGeometry width="50" height="50" relative="1" as="geometry">
            <mxPoint x="510" y="840" as="sourcePoint" />
            <mxPoint x="550" y="880" as="targetPoint" />
          </mxGeometry>
        </mxCell>
        <mxCell id="syXYu_YrFkgmHkafX28n-27" value="Set status to pending approval from internship committee" style="rounded=1;whiteSpace=wrap;html=1;fillColor=#f5f5f5;fontColor=#333333;strokeColor=#666666;" parent="1" vertex="1">
          <mxGeometry x="400" y="530" width="200" height="100" as="geometry" />
        </mxCell>
        <mxCell id="syXYu_YrFkgmHkafX28n-28" value="" style="endArrow=classic;html=1;rounded=0;entryX=0.5;entryY=0;entryDx=0;entryDy=0;exitX=0.5;exitY=1;exitDx=0;exitDy=0;" parent="1" source="syXYu_YrFkgmHkafX28n-18" target="syXYu_YrFkgmHkafX28n-27" edge="1">
          <mxGeometry width="50" height="50" relative="1" as="geometry">
            <mxPoint x="530" y="540" as="sourcePoint" />
            <mxPoint x="580" y="490" as="targetPoint" />
          </mxGeometry>
        </mxCell>
      </root>
    </mxGraphModel>
  </diagram>
</mxfile>
